<?xml version="1.0" encoding="utf-8"?>
<!-- Uploaded to: SVG Repo, www.svgrepo.com, Generator: SVG Repo Mixer Tools -->
<svg fill="#000000" height="800px" width="800px" version="1.2" baseProfile="tiny" id="Bee" xmlns="http://www.w3.org/2000/svg" xmlns:xlink="http://www.w3.org/1999/xlink"
	  viewBox="0 0 256 256" xml:space="preserve">
<path d="M248.4,74.2L248.4,74.2C243.6,60.7,231.6,52,217.6,52c-3.4,0-7.2,0.5-10.1,1.4L168,67l0,0V56.8c0-9.6-3.9-17.3-10.6-22.6
	l0,0l9.6-13.5c1.4-1.9,1.4-4.8,0-6.3c-2.4-2.9-6.7-2.9-8.7,0l-10.1,14.5l0,0c-5.3-1.9-12-2.9-18.8-2.9c-7.2,0-13.5,1-18.8,2.9l0,0
	l-10.1-14c-1.4-2.4-4.8-3.4-7.2-1.9c-2.9,1.4-3.4,5.3-1.4,7.7l9.6,13.5l0,0c-6.7,5.3-10.6,13.5-10.6,22.6V67l0,0L51.4,53.5
	c-3.4-1-7.2-1.4-10.1-1.4c-13.5,0-26,8.2-30.8,22.2l0,0c-5.8,16.4-5.8,34.2,0,51.1c4.8,13.5,17.3,22.2,30.8,22.2
	c3.4,0,7.2-0.5,10.1-1.4l34.2-12v0.5c-5.8,11.6-9.6,24.6-9.6,38.1c0,35.2,22.2,64.6,53,76.1l0,0c30.8-11.6,53-40.9,53-76.1
	c0-14-3.4-26.5-9.6-38.1v-0.5l35.7,12c3.4,1,7.2,1.4,10.1,1.4c13.5,0,26.5-8.7,30.8-22.2C253.7,108.4,253.7,90.6,248.4,74.2z
	 M99.5,56.8c0-6.7,2.4-10.6,5.8-14l0,0l3.4,5.3c1,1.4,2.9,1.9,4.3,1.9c1.4,0,2.9-0.5,3.9-1.4c1.9-1.9,1.9-5.3,0.5-7.2l-2.4-3.4
	c0,0,0,0,0-0.5c4.8-1.4,9.2-1.4,12.5-1.4s7.7,0.5,12.5,1.4c0,0,0,0,0,0.5l-1.9,3.4c-1.4,2.4-1.4,5.3,0.5,7.2c1,1,2.4,1.4,3.9,1.4
	s3.4-1,4.3-1.9l3.4-5.3l0,0c3.4,2.9,5.8,7.2,5.8,14v14l0,0H99.5l0,0L99.5,56.8L99.5,56.8z M46.1,134.9c-4.8,1.4-10.1,1.4-14.9-0.5
	c-6.3-2.4-11.1-8.2-13-14.5c-3.9-13.5-3.9-27.5,0-40.9c1.9-6.7,6.3-12,13-14.5c4.8-1.9,10.1-1.9,14.9-0.5c0,0,23.6,8.2,35.7,12
	c4.8,1.4,8.2,4.8,11.1,8.7l1.9,2.9c4.8,7.2,4.8,16.4,0,23.6c-0.5,1-1.4,1.9-1.9,2.9c-2.9,3.9-6.7,7.2-11.6,8.7L46.1,134.9z
	 M155.4,214.9H101l0,0c-4.8-6.3-9.2-13.5-11.6-21.2l0,0h77.1l0,0C164.1,200.9,160.3,208.6,155.4,214.9L155.4,214.9z M86.1,171.5
	c0-7.7,1.4-14.5,3.4-21.2l0,0h77.1l0,0c1.9,6.7,3.4,14,3.4,21.2l0,0H86.1L86.1,171.5z M238.3,120c-2.4,6.3-6.3,12-13,14.5
	c-4.8,1.9-10.1,1.9-14.9,0.5l-34.2-11.6c-5.3-1.9-9.6-5.8-12-10.6c-0.5-1-1-2.4-1.4-3.4c-3.4-6.3-3.4-14,0-20.2l1.4-3.4
	c2.9-4.8,7.2-8.7,12-10.6c12.5-4.3,34.7-11.6,34.7-11.6c4.8-1.4,10.1-1.4,14.9,0.5c6.3,2.4,10.6,8.2,13,14.5
	C242.6,92,242.6,106.5,238.3,120z"/>
</svg>