<?xml version="1.0" encoding="utf-8"?>
<!-- Uploaded to: SVG Repo, www.svgrepo.com, Generator: SVG Repo Mixer Tools -->
<svg fill="#000000" height="800px" width="800px" version="1.1" id="_x31_" xmlns="http://www.w3.org/2000/svg" xmlns:xlink="http://www.w3.org/1999/xlink" 
	 viewBox="0 0 128 128" xml:space="preserve">
<path id="_x31__46_" d="M35.9,13c-3.5-3.5-9.3-4.4-12.7-1.2L4.5,30.5c-2.9,2.9-1.6,7.7,2.3,8.7L10,40c8.1,2.1,16.3-2.7,18.5-10.7
	l2-7.7c0.3-1.1,1.4-1.7,2.4-1.4c1.1,0.3,1.7,1.4,1.4,2.4L32.6,29c3.4-1.9,7.3-3,11.5-3h4.7L35.9,13z"/>
<path id="_x31__45_" d="M92.1,13c3.5-3.5,9.3-4.4,12.7-1.2l18.6,18.7c2.9,2.9,1.6,7.7-2.3,8.7l-3.2,0.8c-8.1,2.1-16.3-2.7-18.5-10.7
	l-2-7.7c-0.3-1.1-1.4-1.7-2.4-1.4s-1.7,1.4-1.4,2.4l1.7,6.4c-3.4-1.9-7.3-3-11.5-3h-4.7L92.1,13z"/>
<path id="_x32_" d="M103.6,59.9V49.8c0-10.8-8.9-19.7-19.7-19.7H44.3c-10.8,0-19.7,8.9-19.7,19.7v10.1c-3.1,4.1-5,9.3-5,15v14.9
	c0,12.3,8.9,22.6,20.7,24.7c0.1,0,0.1,0,0.2,0c0.3,0.1,0.6,0.1,1,0.1c0.6,0.1,1.2,0.1,1.8,0.2c0.2,0,0.4,0,0.5,0c0.2,0,0.3,0,0.5,0
	h0.5h7.5c3.2,2.7,7.2,4.2,11.7,4.2s8.5-1.6,11.7-4.2h7.6h0.5c0.2,0,0.3,0,0.5,0s0.4,0,0.5,0c0.6,0,1.2-0.1,1.8-0.2
	c0.3,0,0.6-0.1,1-0.1c0.1,0,0.1,0,0.2,0c11.7-2.1,20.7-12.4,20.7-24.7V74.9C108.5,69.3,106.7,64.1,103.6,59.9z M82.5,47.7
	c3.6,0,6.6,3,6.6,6.6s-3,6.6-6.6,6.6s-6.6-3-6.6-6.6C76,50.6,78.9,47.7,82.5,47.7z M45.5,47.7c3.6,0,6.6,3,6.6,6.6s-3,6.6-6.6,6.6
	s-6.6-3-6.6-6.6C39,50.6,41.9,47.7,45.5,47.7z M64,114.9c-7.4,0-13.6-5.8-14-13.3c4.6,0,8.9-1.6,12.3-4.5v10.6c0,1,0.7,1.8,1.8,1.8
	s1.8-0.7,1.8-1.8V97.1c3.4,2.8,7.7,4.5,12.3,4.5C77.6,109,71.4,114.9,64,114.9z M97.7,81.2c0,9.8-8,17.8-17.8,17.8
	c-6.9,0-12.8-3.9-15.8-9.7c-3,5.7-8.9,9.7-15.8,9.7c-9.8,0-17.8-8-17.8-17.8v-5.8c0-1.1,0.8-2,2-2s2,0.8,2,2v5.8
	c0,7.6,6.2,13.8,13.8,13.8c7,0,12.7-5.2,13.7-12c-0.1-0.1-0.1-0.1-0.2-0.2l-8-12.1c-1.1-1.6,0.2-3.5,2.3-3.5h16c2,0,3.3,1.9,2.3,3.5
	l-8,12.1c0,0.1-0.1,0.1-0.2,0.2c1,6.8,6.7,12,13.7,12c7.6,0,13.8-6.2,13.8-13.8v-5.8c0-1.1,0.8-2,2-2s2,0.8,2,2V81.2L97.7,81.2z"/>
</svg>