<?xml version="1.0" encoding="utf-8"?>
<!-- Uploaded to SVGRepo https://www.svgrepo.com -->
<svg version="1.1" id="Layer_1" xmlns="http://www.w3.org/2000/svg" xmlns:xlink="http://www.w3.org/1999/xlink" x="0px" y="0px"
	 width="260px" height="260px" viewBox="0 0 260 260" enable-background="new 0 0 260 260" xml:space="preserve">
<path d="M256.575,24.068L235.932,3.425c-1.9-1.9-4.981-1.9-6.881,0l-20.643,20.643c-1.899,1.899-1.9,4.979-0.002,6.879
	l-57.178,57.178c-18.815-13.19-39.733-15.744-50.633-4.844c-2.47,2.47-4.249,5.456-5.371,8.815
	c-0.952,2.787-2.043,5.646-3.387,8.497c-1.575,3.339-3.655,6.511-6.425,9.281c-3.879,3.879-8.567,6.389-13.444,7.956
	c-10.148,3.26-22.628,5.638-33.076,8.792c-3.875,0.966-7.588,2.353-11.078,4.166c-1.686,0.828-3.216,1.715-4.546,2.678
	c0.001,0.001,0.003,0.003,0.004,0.004c-2.486,1.667-4.828,3.579-6.995,5.745C6.647,148.846,1.985,161.96,2,176
	c0.02,19.118,8.712,40.007,25.35,56.646C44.045,249.341,64.83,258.038,84,258c13.967-0.028,27.194-4.694,36.78-14.28
	c2.178-2.178,4.097-4.533,5.77-7.033c0.932-1.292,1.793-2.767,2.597-4.392c1.884-3.602,3.32-7.438,4.298-11.451
	c3.117-10.395,5.482-22.753,8.716-32.819c1.567-4.877,4.077-9.565,7.956-13.444c2.77-2.77,5.942-4.85,9.281-6.425
	c2.806-1.324,5.62-2.4,8.366-3.341c3.413-1.119,6.448-2.909,8.951-5.412c10.901-10.901,8.346-31.819-4.844-50.634l57.178-57.178
	l0.002,0.002c1.9,1.9,4.98,1.9,6.881,0l20.643-20.643C258.475,29.049,258.475,25.968,256.575,24.068z M84.605,209.906L50.2,175.501
	l6.881-6.881l34.405,34.405L84.605,209.906z M135.618,150.183c-7.125,7.125-18.678,7.125-25.804,0s-7.125-18.678,0-25.804
	c7.125-7.125,18.678-7.125,25.804,0S142.743,143.057,135.618,150.183z"/>
</svg>
