<?xml version="1.0" encoding="UTF-8" standalone="no"?>
<svg xmlns:rdf="http://www.w3.org/1999/02/22-rdf-syntax-ns#" xmlns="http://www.w3.org/2000/svg" height="523.12" viewBox="0 0 523.125 523.125" width="523.12" version="1.1" xmlns:cc="http://creativecommons.org/ns#" xmlns:dc="http://purl.org/dc/elements/1.1/">
<path d="m243.28 519.76c-217.61-21.59-317.59-270.04-173.63-431.47 133.21-149.37 381.73-93.301 439.74 99.21 51.6 171.24-91.26 349.61-266.11 332.26zm110.62-22.886c0.51562-0.40818 3.6797-1.8728 7.0312-3.2546 10.432-4.3012 30.926-15.1 37.45-19.733 2.3479-1.6674 5.7052-3.761 7.4607-4.6526 1.7555-0.89158 5.9743-3.8974 9.375-6.6795s8.8946-7.2727 12.209-9.9791c6.434-5.2542 15.768-14.514 24.912-24.715 3.0938-3.4513 6.0691-6.7375 6.6119-7.3028 1.9107-1.9898 11.669-15.265 11.669-15.874 0-0.33937 1.8984-3.1959 4.2188-6.3478 2.3203-3.1519 4.2188-6.0851 4.2188-6.5181 0-0.43305 1.2023-2.6015 2.6717-4.8187 1.4695-2.2172 3.5293-5.9298 4.5775-8.2501s3.6428-7.9173 5.7658-12.438c2.123-4.5205 3.86-9.0557 3.86-10.078 0-1.0225 0.42188-1.859 0.9375-1.859s0.9375-1.1812 0.9375-2.625 0.49269-3.1177 1.0949-3.7199c1.2453-1.2453 3.2972-6.413 4.7395-11.936 0.53857-2.0625 2.0202-7.3359 3.2925-11.719 3.7351-12.867 3.8328-13.275 4.9379-20.625 4.5141-30.024 3.9898-45.236-1.585-45.988-2.2478-0.30296-5.2959-1.6692-7.3203-3.2812-1.9078-1.5192-4.7176-3.4172-6.2439-4.2178-2.6043-1.3661-10.168-11.478-19.057-25.475-2.0543-3.235-3.9613-6.0928-4.2378-6.3506-0.27653-0.25781-1.0267-1.66-1.667-3.1161-0.64032-1.456-2.3468-4.1982-3.7923-6.0938-1.4454-1.8955-4.993-6.6105-7.8836-10.478-6.6832-8.9414-15.55-18.07-27.434-28.244-5.1562-4.4143-10.29-9.041-11.409-10.282-1.1189-1.2406-4.6145-5.0603-7.7679-8.4882s-7.7657-8.9123-10.25-12.188c-8.2798-10.918-13.254-15.311-23.542-20.793-7.5655-4.0312-15.013-9.1151-16.247-11.09-0.59364-0.95056-1.5755-1.7283-2.1819-1.7283s-1.9471-1.1594-2.9793-2.5764c-5.4459-7.476-4.6874 11.033 0.86147 21.022 3.8184 6.8735 4.0888 7.8383 4.2903 15.305 0.11827 4.3828 0.34381 9.2344 0.5012 10.781 0.47142 4.6334-3.8387 3.9766-6.1517-0.9375-0.97083-2.0625-2.5562-4.7561-3.523-5.9858-0.96684-1.2297-1.7629-3.55-1.769-5.1562-0.0153-4.0079-2.2154-11.936-4.1183-14.84-1.8612-2.8406-3.2205-17.828-1.7862-19.694 0.50686-0.65946 1.8939-3.7303 3.0823-6.824 1.1884-3.0938 3.36-7.1738 4.8257-9.0669l2.6649-3.4419-0.88686-9.3079c-0.48777-5.1193-1.3669-11.375-1.9537-13.902-0.58676-2.5267-1.4002-6.9143-1.8075-9.7503-0.40737-2.8359-2.0133-8.7422-3.5687-13.125s-3.0758-9.0868-3.3786-10.453c-0.37767-1.7042-1.4796-2.8083-3.5086-3.5156-4.8259-1.6823-6.1356-1.3226-6.7722 1.8602-0.31806 1.5903-1.3652 4.016-2.327 5.3906-0.96177 1.3746-1.9717 4.2324-2.2444 6.3507-0.27263 2.1183-1.1459 5.2824-1.9407 7.0312-1.7696 3.8942-6.6735 17.923-9.1115 26.066-1.9556 6.5318-2.5878 16.974-1.4087 23.268 0.95571 5.1012-0.62287 9.0099-4.6418 11.494-4.6029 2.8447-12.176 1.9524-9.1462-1.0777 0.64022-0.64022 1.164-2.1258 1.164-3.3013s0.69276-3.8686 1.5394-5.9848c1.1741-2.9345 1.3204-4.5614 0.61611-6.856-0.64549-2.1032-0.52005-6.1928 0.41684-13.59 1.4398-11.368 1.2506-12.574-1.5711-10.021-1.62 1.4661-4.3051 1.6686-24.146 1.8214-20.38 0.15694-22.691 0.34092-26.542 2.1126-2.3203 1.0674-6.1327 2.4545-8.472 3.0825-5.1182 1.3739-16.532 12.526-21.059 20.575-1.5469 2.7506-4.1295 7.0294-5.7392 9.5084s-3.2148 6.0429-3.5668 7.9196c-0.40726 2.1709-2.2542 5.1946-5.0769 8.3115-3.9621 4.3751-4.6662 5.8496-6.5811 13.781-1.1794 4.8852-2.9256 11.463-3.8804 14.617-0.95484 3.154-2.0238 8.8493-2.3754 12.656-0.79802 8.6406-2.9265 15.391-7.6843 24.371-2.1767 4.1084-3.9763 9.021-4.3576 11.895-0.35726 2.6932-0.89043 5.5244-1.1848 6.2915-1.1329 2.9522 2.2272 1.2415 4.8761-2.4826 1.5169-2.1326 4.481-5.824 6.5868-8.2031 4.1482-4.6866 9.088-11.771 10.05-14.414 1.2224-3.3573 10.88-17.247 15.148-21.786 2.424-2.5781 5.9548-6.5507 7.8462-8.8279s4.4936-5.2744 5.7827-6.6605 3.3984-4.0768 4.6875-5.9795c9.2043-13.585 14.295-18.378 17.237-16.226 1.4145 1.0343 1.2564 1.6147-1.7135 6.2918-1.7995 2.8338-5.3752 9.3711-7.946 14.527-2.5708 5.1562-6.1784 11.864-8.0168 14.906-4.2222 6.9865-4.0137 7.0989 2.8132 1.5157 13.218-10.81 13.608-11.286 19.2-23.453 0.98523-2.1434 5.372-2.3609 5.8289-0.28899 0.82732 3.7514-6.7116 16.002-12.732 20.69-6.9502 5.4113-13.542 12.192-14.333 14.743-0.79464 2.5632-6.6408 11.558-9.7578 15.013-1.3956 1.5469-2.9386 4.0781-3.429 5.625-1.121 3.5359-4.3654 4.2757-5.93 1.3522-0.87287-1.631-0.7705-2.8238 0.50776-5.9163 3.136-7.5869 3.3129-8.3228 2.7375-11.39-0.48736-2.5978 0.12953-4.275 3.7908-10.306 2.4051-3.962 4.0915-7.479 3.7477-7.8156-1.0875-1.0644-13.129 14.071-16.446 20.672-3.5125 6.9896-8.6067 15.128-12.205 19.497-1.9106 2.3203-4.9883 7.2562-6.8395 10.969-3.4326 6.8838-13.743 19.031-16.153 19.031-2.1845 0-1.5411-6.591 1.1339-11.616 2.3235-4.3647 2.1346-6.1128-0.6683-6.1822-2.0656-0.0512 0.53026-22.556 3.6783-31.889 5.3686-15.917 4.8322-32.515-0.70035-21.67-1.0221 2.0034-3.4896 4.8511-5.4834 6.3281-5.338 3.9545-9.2268 8.775-11.292 13.997-1.0059 2.5441-2.9288 7.0243-4.273 9.9561-2.7264 5.946-2.862 7.5428-1.2326 14.511 1.3046 5.5792 2.6714 6.3068 3.7837 2.0142 0.4271-1.6482 1.5873-4.0274 2.5781-5.2871 0.99088-1.2597 1.815-3.3936 1.8314-4.7421 0.0364-2.9893 1.9784-5.7329 4.0579-5.7329 1.8626 0 1.9023 0.9967 0.28754 7.2218-0.68736 2.6498-1.344 7.4287-1.4591 10.62-0.12543 3.4759-1.1584 8.2977-2.5765 12.027-1.302 3.4238-2.5867 7.2798-2.8549 8.5689-0.72345 3.4765-4.7994 13.871-7.535 19.216-1.3188 2.5768-3.1509 6.8741-4.0714 9.5496-0.92051 2.6755-4.7642 10.059-8.5416 16.409-3.7774 6.3493-7.0232 11.966-7.213 12.482-0.49916 1.3564-7.4675 12.781-12.723 20.859-2.982 4.5836-21.15 47.292-21.15 49.718 0 2.7221-6.0204 13.389-9.3745 16.61-6.1872 5.9416-9.174 21.67-4.9224 25.922 0.64453 0.64453 1.1778 2.0367 1.1851 3.0937 0.0075 1.057 1.6566 3.7439 3.6652 5.9708l3.652 4.0489-0.0976 17.12c-0.11027 19.352 0.34264 20.897 8.6218 29.429l3.8022 3.9179 6.9473-0.0714c3.821-0.0393 7.7302 0.33519 8.6872 0.83214 3.3501 1.7397 13.028 4.7505 17.209 5.3536 2.3203 0.33474 5.5832 1.0315 7.2509 1.5484 3.8152 1.1825 6.8116 0.27958 6.8116-2.0526 0-2.6785 2.7874-9.2877 5.7856-13.718 1.4585-2.1554 2.6519-4.7314 2.6519-5.7246 0-2.2308 4.6873-8.2838 12.061-15.575 5.1968-5.1386 6.4947-7.2277 9.5338-15.346 2.5422-6.7909 16.398-13.609 18.187-8.9486 0.99155 2.584-2.9172 10.863-6.1149 12.952-1.5768 1.03-3.6609 3.4014-4.6314 5.2698s-3.093 4.6106-4.7167 6.0938-3.4353 3.2533-4.0258 3.9336c-0.59052 0.68029-2.063 2.1568-3.2722 3.2812-13.116 12.196-12.061 31.415 1.2784 23.28 6.9816-4.2576 8.8604-7.6742 10.646-19.361 1.403-9.181 6.5391-15.642 16.993-21.377 3.8672-2.1214 9.1406-5.7886 11.719-8.1492 7.7882-7.1311 18.833-13.327 28.27-15.859 5.2992-1.4218 13.17-5.006 17.475-7.9571 1.9565-1.3414 3.8625-2.4389 4.2355-2.4389 1.2801 0 7.676-4.755 7.676-5.7066 0-0.91524-6.4296-4.0812-7.0856-3.4889-15.86 14.321-33.097 17.779-20.131 4.0393 2.7371-2.9004 11.36-16.158 14.414-22.162 3.0226-5.9421 9.0785-7.2968 11.674-2.6116 2.819 5.0885 3.3709 5.4621 9.4928 6.4278 3.3114 0.52237 6.4544 1.3834 6.9844 1.9134 0.52998 0.52998 1.7406 0.9636 2.6902 0.9636 0.94963 0 4.4336 1.2656 7.7422 2.8125 8.1953 3.8316 11.948 2.8635 21.699-5.5981 2.1377-1.8549 6.1455-4.6018 8.9062-6.1042 7.1088-3.8684 13.134-8.6611 15.19-12.082 0.9699-1.6139 2.5711-3.7005 3.5581-4.637 2.448-2.3225 6.4058-8.7121 7.592-12.256 2.0091-6.0036 6.5562-8.2941 8.1149-4.0878 1.7507 4.7245-8.2728 23.577-19.813 37.266-9.6475 11.443-17.591 25.293-17.591 30.671 0 0.73904 3.72 0.13643 4.2275-0.68483 0.84429-1.3661 6.8581-3.7358 9.4807-3.7358 3.5206 0 2.7905 3.2219-2.3108 10.198-2.4971 3.4146-5.4766 8.3178-6.6212 10.896-1.1446 2.5781-2.9908 6.4725-4.1026 8.6542-2.6928 5.2843-1.2033 7.0423 2.6017 3.0707 7.568-7.8993 9.4863 1.0577 2.9582 13.813-0.72835 1.4231-1.6077 4.4859-1.9541 6.8062-0.34638 2.3203-0.85166 5.3789-1.1228 6.7969-0.63986 3.3457 2.0502 3.5842 3.5403 0.31383 1.8656-4.0946 7.3656-3.7257 7.3656 0.49404 0 0.96258-0.8928 3.9695-1.984 6.6821-1.4247 3.5416-2.1855 8.2155-2.6988 16.58-0.58253 9.4937-1.0198 11.871-2.3642 12.854-2.7046 1.9777-5.1405 0.00094-5.1405-4.1706 0-1.9296-0.56662-4.3406-1.2592-5.3576-1.42-1.94-4.45-13.19-4.45-16.19 0-2.4416-6.3326-16.001-8.9158-19.09-1.1544-1.3806-2.816-5.5994-3.6924-9.375s-2.2291-9.559-3.006-12.852c-0.77688-3.2931-1.1901-6.838-0.91825-7.8775 1.1182-4.2761-3.1033-20.315-6.2827-23.869-5.3077-5.9342-11.775 1.6536-7.6678 8.996 2.2041 3.9401 6.108 15.154 6.108 17.545 0 1.1972 0.42187 2.4375 0.9375 2.7562 0.51562 0.31867 0.93772 2.5584 0.93801 4.9772 0.00053 4.6633 4.6707 29.335 6.5999 34.867 1.5379 4.4095 3.266 7.9876 6.5652 13.594 1.5172 2.5781 3.5988 7.4534 4.6258 10.834 1.0614 3.4939 2.8106 6.9668 4.0532 8.0472 1.2023 1.0454 3.1286 4.1857 4.2808 6.9784 3.6116 8.7546 10.781 11.973 16.531 7.4219zm-201.09-67.96c-1.2891-0.73689-3.3984-1.3605-4.6875-1.3858-9.4744-0.18604-7.7838-6.6896 2.6458-10.178 1.713-0.57299 4.7268-2.3188 6.6974-3.8795 7.6574-6.0648 12.059 1.3012 4.7371 7.9274-0.98262 0.88925-2.0557 2.8422-2.3847 4.3399-0.90165 4.1052-3.4014 5.2381-7.0082 3.1762zm-13.642-14.941c-6.9042-10.537-3.1134-20.954 8.7196-23.962 5.0841-1.2923 5.0299-2.4584-0.22191-4.7816-6.6328-2.934-7.2342-8.9-0.94996-9.4245 15.257-1.2733 17.354 0.3399 17.332 13.332-0.0274 16.034-18.539 34.513-24.88 24.836zm30.558-15.229c-2.1076-1.4762-2.2552-7.7937-0.54587-23.365 0.1252-1.1405 1.9774-4.8441 4.116-8.2304 2.1386-3.3862 3.8884-6.61 3.8884-7.1638 0-5.5477 5.3129-8.0604 9.7173-4.5959 3.3807 2.6593 3.1336 5.066-1.4193 13.824-3.8475 7.4012-3.8742 7.5209-2.4732 11.092 1.7575 4.4793 1.4673 5.3494-3.6131 10.835-2.2477 2.4271-4.0868 5.049-4.0868 5.8264 0 2.4432-3.1855 3.4576-5.5835 1.778zm328.28-86.038c-2.4217-3.0786-8.6805-15.831-9.6001-19.56-0.40442-1.64-1.595-5.0912-2.6456-7.6693-1.0507-2.5781-2.1426-5.3203-2.4266-6.0938-0.28393-0.77344-0.89191-2.0391-1.3511-2.8125-0.45915-0.77344-1.411-2.6521-2.1153-4.1749-0.70429-1.5228-3.1163-5.522-5.3601-8.8873-2.2438-3.3652-5.3057-8.4475-6.8042-11.294-1.4985-2.8464-3.1231-5.8081-3.6102-6.5815-1.0902-1.731-3.9935-8.6624-7.0499-16.831-1.4972-4.0014-3.9031-6.8707-7.5534-9.0082-2.4183-1.416-0.90024-3.2233 2.7075-3.2233 3.7785 0 9.2112 5.2948 14.144 13.785 1.8585 3.1989 3.7806 6.0643 4.2715 6.3677 0.49085 0.30336 1.3369 2.2021 1.8801 4.2194s1.983 4.8507 3.1995 6.2965c1.2166 1.4458 2.9131 4.3069 3.7701 6.358 0.85701 2.0511 2.3325 4.5788 3.2788 5.617 0.94633 1.0383 2.46 3.3487 3.3638 5.1342 0.90376 1.7855 2.6406 4.031 3.8597 4.9899 1.2191 0.95891 2.2165 2.1789 2.2165 2.7112 0 0.53222 0.99322 2.9451 2.2072 5.362 1.2139 2.4169 2.7431 6.6969 3.398 9.5112 0.65499 2.8142 1.5552 6.3254 2.0004 7.8026s0.56225 3.0858 0.2601 3.5747c-0.30215 0.48889 0.20956 1.7275 1.1371 2.7524 1.0675 1.1796 1.6066 3.0504 1.4687 5.0972-0.20993 3.1172-0.0985 3.2336 3.0928 3.2336 3.944 0 4.0743 0.48352 0.91857 3.4081-3.0855 2.8595-6.3667 2.8273-8.6575-0.0849zm-267.94-3.7349c-1.5701-1.1481-1.4695-1.6308 1.6947-8.1387 1.8501-3.805 3.6406-7.8592 3.979-9.0093 0.33841-1.15 4.1702-5.7907 8.5151-10.312 4.3449-4.5218 7.905-8.6102 7.9114-9.0852 0.007-0.47502 0.73908-1.6675 1.6282-2.6499 1.5308-1.6915 1.5293-1.9382-0.0271-4.6501-2.498-4.3525-0.29463-7.305 5.4516-7.305 3.9135 0 4.345-0.2588 6.6426-3.9844 6.4434-10.448 12.906-7.9903 8.366 3.1815-1.2992 3.1975-2.3623 6.1436-2.3623 6.5469 0 0.40329-0.94922 1.7871-2.1094 3.0751-11.423 12.682-12.946 21.011-5.7713 31.559 1.748 2.5698 2.1365 4.0464 1.6735 6.3614-1.2247 6.1233-7.0101 6.2031-11.015 0.15181-3.3187-5.0149-5.9523-4.9632-13.776 0.27047-7.5772 5.069-8.7386 5.4979-10.802 3.9892zm141.64-13.885c-1.5055-4.2213-3.7897-29.987-3.47-39.141 0.1753-5.0192 1.0471-12.226 1.5841-13.094 0.35018-0.5666 0.85195-5.9732 1.1151-12.015 0.49037-11.26 1.1332-13.328 4.1419-13.328 2.0984 0 3.6682 2.6928 3.6682 6.2923 0 1.466 0.66832 3.6197 1.4852 4.7859 1.2326 1.7598 1.2958 2.6322 0.37169 5.1305-0.73082 1.9757-1.2562 12.837-1.5287 31.604-0.47208 32.51-0.26481 30.938-4.0782 30.938-1.5792 0-3.0594-0.52734-3.2893-1.1719zm-128.67-55.59c-4.2628-2.9858-2.2756-12.948 3.9682-19.892 4.6732-5.1978 7.0208-10.888 7.0409-17.068 0.0154-4.7187 2.189-11.136 5.3738-15.865 1.1769-1.7477 2.1399-3.5123 2.1399-3.9212 0-1.9926 14.688-3.2782 18.104-1.5846 3.0501 1.5122 1.4544 4.6672-4.2756 8.4539-6.3403 4.19-7.0332 5.9647-1.875 4.8023 5.3391-1.2031 11.756-0.82361 15.21 0.89965 3.0277 1.5104 3.153 1.4916 5.2682-0.79069 3.8309-4.1336 8.3769-2.4929 15.147 5.4666 5.7585 6.7703 6.5432 10.777 2.6147 13.352-1.269 0.83145-2.5882 2.397-2.9316 3.4791-2.7161 8.5577-14.157 20.46-22.219 23.115-6.2078 2.044-10.71-3.0735-6.6507-7.5593 0.83424-0.92183 1.7949-3.0359 2.1349-4.698 0.54959-2.6872 1.3413-3.3184 7.1474-5.6979 5.4528-2.2348 11.431-6.9111 10.304-8.0606-0.16032-0.16358-2.3374 0.72812-4.8378 1.9816-6.5252 3.271-16.056 4.9928-20.008 3.6149-4.4526-1.5522-5.357-1.3654-6.0112 1.2413-0.52561 2.0942-10.541 9.8658-12.714 9.8658-0.42541 0-2.127 2.1094-3.7814 4.6875s-3.3514 4.6875-3.7711 4.6875-1.3281 0.21683-2.0187 0.48184-2.2017-0.18079-3.3579-0.99067zm197.26-34.018c-0.85336-0.94295-1.5516-2.0653-1.5516-2.4942 0-2.5693-17.807-24.886-28.585-35.825-5.1934-5.2707-8.0563-9.07-15.399-20.436-2.9212-4.5217-2.7864-4.3524-8.5688-10.766-4.715-5.2296-5.7415-8.0871-3.2488-9.0436 2.3183-0.88961 20.646 17.91 26.27 26.946 2.8599 4.5951 5.177 7.4692 9.9746 12.372 2.9312 2.9958 6.2826 6.8378 7.4475 8.5379 1.1649 1.7 3.2554 3.8554 4.6456 4.7898 1.3902 0.93434 3.9194 4.0532 5.6206 6.9309 1.7011 2.8776 4.2675 6.5942 5.703 8.2589 5.7987 6.7247 3.5454 17.196-2.3085 10.727zm-130.37-15.06c-3.1368-3.4661-3.7588-19.477-0.8377-21.563 0.43592-0.31129 1.5308-1.7261 2.4332-3.1441 4.6486-7.3052 11.235-0.73957 7.4823 7.4583-2.2792 4.9784-2.292 5.1432-0.76395 9.815 2.3447 7.1684-3.6794 12.555-8.3138 7.4338zm-27.408-14.362c-4.681-1.5071-6.3277-7.5028-2.3592-8.5897 0.85471-0.23411 3.5282-0.69343 5.9412-1.0207 2.4129-0.32731 5.4686-1.4458 6.7903-2.4855 6.4874-5.103 10.656 0.81671 5.0623 7.188-4.8 5.4669-9.2769 6.8904-15.435 4.9078zm-5.4926-54.084c-4.2656-0.66312-4.4671-1.9667-0.88304-5.7134 4.8564-5.077 10.102-12.069 14.574-19.427 8.9124-14.664 15.856-9.9111 8.7285 5.9748-0.72897 1.6248-1.3254 3.361-1.3254 3.8582 0 2.9316-14.167 16.534-16.688 16.023-0.36087-0.0731-2.3436-0.39537-4.4061-0.71601zm48.509-1.1732c-2.1912-2.1912 0.0777-31.901 2.6809-35.104 0.46138-0.56764 1.1077-2.9934 1.4363-5.3906l0.5974-4.3585h-2.9399c-3.9878 0-3.9942-4.1692-0.023-15.008 1.6043-4.3786 3.1163-9.2267 3.36-10.774 3.1258-19.84 15.839-0.01542 17.574 27.405 0.64281 10.156 0.33421 11.483-3.8344 16.495-1.2125 1.4575-2.2045 3.3808-2.2045 4.2739 0 0.89312-1.5146 4.1303-3.3657 7.1937s-4.3003 7.8902-5.4426 10.726c-2.1758 5.4017-5.2164 7.1629-7.839 4.5403zm-111.37-26.634c3.6361-5.1173 9.4163-12.128 12.845-15.579 6.1647-6.2054 6.7118-7.3364 3.5489-7.3364-0.89295 0-4.0922-1.3272-7.1094-2.9493s-7.0467-3.7311-8.9544-4.6866c-1.9077-0.95551-3.8062-2.2752-4.2188-2.9325-0.41261-0.65738-1.8289-1.8798-3.1474-2.7164-1.3184-0.83665-4.0606-3.9877-6.0938-7.0024-2.0331-3.0147-4.2825-6.1001-4.9986-6.8566-0.71617-0.75649-1.8707-2.6578-2.5657-4.2251-2-4.492-9.25-14.15-10.24-13.632-1.1485 0.59998-0.5288 18.419 0.74992 21.562 0.52429 1.2891 1.2877 4.0312 1.6965 6.0938 2.8921 14.592 7.1002 26.497 10.77 30.469 3.1921 3.4547 7.9178 12.93 7.9178 15.876 0 6.2213 1.8806 5.0528 9.7952-6.0858z"/>
</svg>
