<?xml version="1.0" encoding="UTF-8" standalone="no"?>
<!-- Created with Inkscape (http://www.inkscape.org/) -->

<svg
   xmlns:dc="http://purl.org/dc/elements/1.1/"
   xmlns:cc="http://creativecommons.org/ns#"
   xmlns:rdf="http://www.w3.org/1999/02/22-rdf-syntax-ns#"
   xmlns:svg="http://www.w3.org/2000/svg"
   xmlns="http://www.w3.org/2000/svg"
   xmlns:sodipodi="http://sodipodi.sourceforge.net/DTD/sodipodi-0.dtd"
   xmlns:inkscape="http://www.inkscape.org/namespaces/inkscape"
   width="203.06184mm"
   height="225.77777mm"
   viewBox="0 0 719.51047 799.99997"
   id="svg2"
   version="1.1"
   inkscape:version="0.91 r13725"
   sodipodi:docname="Horse 02 by Rones.svg">
  <defs
     id="defs4" />
  <sodipodi:namedview
     id="base"
     pagecolor="#ffffff"
     bordercolor="#666666"
     borderopacity="1.0"
     inkscape:pageopacity="0.0"
     inkscape:pageshadow="2"
     inkscape:zoom="0.20132518"
     inkscape:cx="392.07751"
     inkscape:cy="948.82794"
     inkscape:document-units="px"
     inkscape:current-layer="layer1"
     showgrid="false"
     inkscape:window-width="1920"
     inkscape:window-height="1018"
     inkscape:window-x="1272"
     inkscape:window-y="-8"
     inkscape:window-maximized="1"
     fit-margin-top="0"
     fit-margin-left="0"
     fit-margin-right="0"
     fit-margin-bottom="0" />
  <metadata
     id="metadata7">
    <rdf:RDF>
      <cc:Work
         rdf:about="">
        <dc:format>image/svg+xml</dc:format>
        <dc:type
           rdf:resource="http://purl.org/dc/dcmitype/StillImage" />
        <dc:title></dc:title>
      </cc:Work>
    </rdf:RDF>
  </metadata>
  <g
     inkscape:label="Layer 1"
     inkscape:groupmode="layer"
     id="layer1"
     transform="translate(-37.00951,-127.7912)">
    <path
       inkscape:connector-curvature="0"
       style="opacity:1;fill:#d4aa00;fill-opacity:1;fill-rule:nonzero;stroke:none;stroke-width:1;stroke-linecap:round;stroke-linejoin:round;stroke-miterlimit:4;stroke-dasharray:none;stroke-dashoffset:0;stroke-opacity:1"
       d="m 386.45705,127.7912 1.47372,35.33721 -109.9396,75.09112 c -3.26745,2.2318 -6.19223,6.36157 -5.88876,10.30687 l 1.47223,19.14158 c 0.71298,9.26901 15.30884,14.3502 24.54012,13.25125 l 61.83979,-7.36092 c 3.12478,-0.37202 6.15678,5.72099 4.41654,8.34293 l -36.80945,55.4608 -47.11631,35.82743 c -5.11704,3.8911 -12.59733,7.07447 -18.64979,4.90832 l -46.62609,-16.68742 c -8.2346,-2.94712 -19.89628,-2.81582 -26.01235,3.43618 l -44.17193,45.15236 c -4.6738,4.77765 -7.09071,11.97331 -7.36248,18.65137 l -3.43461,84.41746 c -0.60065,14.75822 2.15533,30.21641 17.66786,50.06077 l 35.33722,-46.62617 c -6.32816,-13.74092 -12.448,-24.18505 -12.76103,-41.71777 l -0.49022,-27.4845 c -0.22315,-12.49694 2.69182,-15.26845 6.38047,-18.15957 l 18.15965,-14.23326 c 2.96431,-2.32341 8.195,-2.63817 11.28888,-0.49022 l 77.05498,53.49686 c 13.19367,9.15999 28.17905,48.77851 45.10028,66.3084 32.3395,33.50269 69.70144,54.54421 107.0473,78.96841 10.83254,7.08451 21.38762,12.38626 22.57622,29.93867 2.38412,35.20732 20.5677,62.23526 49.08025,79.01743 l 58.40519,60.36912 c 11.61987,12.0104 5.26991,17.32071 -0.49171,24.54013 l -40.73584,51.0427 c -8.29994,10.39997 -15.22209,18.05526 -23.06789,22.08596 -24.16842,12.4161 -23.43489,30.541 -27.97473,47.6065 l 70.18421,0 c 3.68622,-11.2047 7.06301,-21.5894 5.71871,-26.5929 -3.43287,-12.7779 3.52355,-18.9457 9.95305,-23.9794 12.04789,-9.43246 14.551,-15.33691 19.66553,-21.0841 l 47.60802,-53.49687 c 7.14922,-8.03365 10.79293,-21.21901 7.36099,-31.41082 L 621.05984,723.1288 c -5.44992,-16.1845 -3.22244,-27.75205 4.90832,-36.31923 35.14011,-37.02631 52.42724,-113.85414 -48.59011,-164.4169 -30.99762,-15.51544 -48.31581,-34.49827 -60.85934,-51.0427 l -56.93139,-75.09253 c -9.57793,-9.69209 -7.59649,-20.45411 -2.94595,-33.37483 8.65808,-24.05524 13.50852,-49.72829 16.36725,-67.13112 2.99513,-18.2333 5.22355,-28.05912 4.5192,-47.65555 -0.55657,-15.48602 -7.0911,-30.44802 -14.07082,-44.45233 -20.48545,-41.1026 -56.99958,-72.96081 -76.99995,-75.85241 z M 167.07113,354.53968 96.39514,372.20746 C 55.40141,383.5696 46.03373,398.72674 37.00951,413.92523 l 53.00665,13.25281 c 8.05499,-18.97467 20.11967,-24.91496 33.37327,-26.99428 l 43.6817,-45.64408 z m 492.76209,217.91368 c 10.50555,23.31277 17.31875,44.91958 20.12195,85.8897 l 6.38055,93.25225 c 0.86271,12.60887 0.9868,24.75614 13.74147,32.39283 21.28796,12.74597 45.12774,28.1567 56.44281,32.39283 -4.87985,-79.33054 -13.49298,-139.16136 -28.46651,-191.9029 -4.72542,-16.64435 -11.32653,-18.42782 -15.70541,-21.59425 -30.1899,-21.83089 -39.93446,-24.86022 -52.51486,-30.43046 z m -148.22127,179.63217 -67.73016,62.3315 c -11.86192,10.91647 -17.67829,16.61252 -26.01227,20.61381 -29.00514,13.92595 -31.32141,31.21536 -39.7554,48.09826 l 65.27596,0 c 8.63761,-18.55035 1.46408,-22.72146 14.72501,-34.3553 l 79.99944,-70.1842 -26.50258,-26.50407 z"
       id="path4223" />
  </g>
</svg>
