<?xml version="1.0" standalone="no"?>
<!DOCTYPE svg PUBLIC "-//W3C//DTD SVG 20010904//EN"
 "http://www.w3.org/TR/2001/REC-SVG-20010904/DTD/svg10.dtd">
<svg version="1.0" xmlns="http://www.w3.org/2000/svg"
 width="669.000000pt" height="603.000000pt" viewBox="0 0 669.000000 603.000000"
 preserveAspectRatio="xMidYMid meet">
<metadata>
Created by potrace 1.14, written by Peter Selinger 2001-2017
</metadata>
<g transform="translate(0.000000,603.000000) scale(0.100000,-0.100000)"
fill="#000000" stroke="none">
<path d="M2880 6008 c-5 -13 -44 -207 -85 -433 -42 -225 -80 -422 -86 -437
-12 -29 -20 -33 -397 -187 -153 -63 -230 -90 -244 -85 -12 3 -171 109 -354
235 -400 275 -397 273 -421 260 -10 -5 -157 -149 -327 -320 -239 -240 -308
-314 -304 -329 3 -11 113 -176 245 -369 132 -192 243 -358 247 -369 4 -14 -32
-110 -115 -305 -154 -362 -146 -345 -177 -358 -15 -5 -208 -44 -430 -85 -222
-41 -410 -80 -417 -86 -22 -18 -22 -902 -1 -919 8 -7 196 -46 417 -87 222 -41
413 -81 424 -88 23 -15 275 -635 275 -677 0 -18 -77 -138 -235 -369 -129 -189
-235 -351 -235 -359 0 -8 141 -156 312 -328 250 -250 318 -313 339 -313 17 0
133 74 355 227 217 149 338 226 354 226 14 0 86 -32 158 -72 163 -88 175 -93
195 -78 21 16 607 1437 607 1471 0 19 -10 32 -42 53 -141 91 -265 199 -335
293 -135 180 -191 367 -180 602 14 342 202 629 512 783 122 60 187 79 320 94
171 20 331 -10 500 -94 310 -154 498 -441 512 -784 11 -246 -55 -448 -206
-634 -66 -80 -182 -179 -308 -260 -33 -21 -43 -34 -43 -53 0 -34 586 -1455
607 -1471 20 -15 32 -10 195 78 72 40 144 72 158 72 16 0 137 -77 354 -226
222 -153 338 -227 355 -227 21 0 89 63 339 313 171 172 312 320 312 328 0 8
-106 170 -235 359 -158 231 -235 351 -235 369 0 42 252 662 275 677 11 7 202
47 424 88 221 41 409 80 417 87 21 17 21 901 -1 919 -7 6 -195 45 -417 86
-222 41 -415 80 -430 85 -31 13 -23 -4 -177 358 -81 189 -119 291 -115 304 3
11 114 177 246 370 133 193 243 359 246 369 4 15 -67 91 -304 329 -170 171
-317 315 -327 320 -24 13 -23 14 -421 -260 -182 -126 -341 -231 -353 -235 -15
-5 -103 27 -300 108 -349 143 -330 134 -342 165 -6 14 -44 211 -86 436 -41
226 -80 420 -85 433 l-10 22 -455 0 -455 0 -10 -22z"/>
</g>
</svg>
