<?xml version="1.0" encoding="UTF-8" standalone="no"?>
<!-- Generator: Adobe Illustrator 16.0.0, SVG Export Plug-In . SVG Version: 6.00 Build 0)  -->

<svg
   xmlns:dc="http://purl.org/dc/elements/1.1/"
   xmlns:cc="http://creativecommons.org/ns#"
   xmlns:rdf="http://www.w3.org/1999/02/22-rdf-syntax-ns#"
   xmlns:svg="http://www.w3.org/2000/svg"
   xmlns="http://www.w3.org/2000/svg"
   xmlns:sodipodi="http://sodipodi.sourceforge.net/DTD/sodipodi-0.dtd"
   xmlns:inkscape="http://www.inkscape.org/namespaces/inkscape"
   version="1.1"
   id="Layer_1"
   x="0px"
   y="0px"
   width="512px"
   height="512px"
   viewBox="0 0 512 512"
   enable-background="new 0 0 512 512"
   xml:space="preserve"
   sodipodi:docname="Rocket001.svg"
   inkscape:version="0.92.5 (2060ec1f9f, 2020-04-08)"><metadata
   id="metadata19"><rdf:RDF><cc:Work
       rdf:about=""><dc:format>image/svg+xml</dc:format><dc:type
         rdf:resource="http://purl.org/dc/dcmitype/StillImage" /></cc:Work></rdf:RDF></metadata><defs
   id="defs17" /><sodipodi:namedview
   pagecolor="#ffffff"
   bordercolor="#666666"
   borderopacity="1"
   objecttolerance="10"
   gridtolerance="10"
   guidetolerance="10"
   inkscape:pageopacity="0"
   inkscape:pageshadow="2"
   inkscape:window-width="1920"
   inkscape:window-height="1016"
   id="namedview15"
   showgrid="false"
   inkscape:zoom="1.3037281"
   inkscape:cx="223.81737"
   inkscape:cy="326.27709"
   inkscape:window-x="0"
   inkscape:window-y="0"
   inkscape:window-maximized="1"
   inkscape:current-layer="Layer_1" />
<g
   id="g12">
	<g
   id="g8">
		<g
   id="g4">
			<path
   fill="#020202"
   d="M204.192,62.194c14.147-20.472,29.339-41.613,50.963-54.72c21.323,12.782,36.366,33.547,50.311,53.656     c32.847,49.754,52.929,109.515,48.878,169.578c10.615,8.898,21.537,17.441,31.994,26.521     c15.011,13.797,22.02,35.319,18.406,55.327c-5.036,25.275-9.876,50.607-15.206,75.813c-2.963,12.968-20.508,18.905-30.823,10.62     c-17.121-14.291-33.816-29.108-50.932-43.417c-12.95,12.462-30.153,20.772-48.214,21.773     c-20.791,1.466-41.375-7.156-56.448-21.242c-12.28,9.401-23.666,20.686-35.664,30.755c-5.799,4.66-10.621,10.784-17.484,13.966     c-10.64,4.565-24.342-2.248-26.747-13.685c-5.479-24.642-11.203-49.24-16.52-73.92c-4.321-20.878,3.332-43.61,19.419-57.607     c9.313-7.822,18.756-15.487,28.243-23.096c2.643-1.39,1.315-4.596,1.465-6.951C153.005,167.614,172.8,110.333,204.192,62.194z      M220.995,138.526c-12.424,15.994-10.921,40.768,3.488,55.052c15.255,16.809,44.15,17.422,60.106,1.29     c12.317-11.253,16.482-30.146,10.603-45.671c-5.387-14.967-19.809-26.195-35.671-27.591     C244.873,119.92,229.706,126.659,220.995,138.526z"
   id="path2" />
		</g>
		<path
   fill="#020202"
   d="M198.263,407.819c-0.213-7.266,8.83-12.262,14.942-8.417c25.87,13.32,58.027,13.314,83.896-0.007    c5.937-3.645,14.736,0.733,14.955,7.803c0.087,15.432,0.105,30.88,0.024,46.317c0.119,7.533-9.832,12.337-15.681,7.626    c-4.452-3.926-8.467-8.341-12.75-12.461c-6.776,13.201-13.163,26.602-19.995,39.772c-3.281,6.275-13.533,6.318-16.877,0.105    c-6.87-13.195-13.213-26.676-20.121-39.858c-4.221,4.157-8.248,8.548-12.694,12.468c-5.824,4.734-15.756-0.162-15.675-7.647    C198.163,438.291,198.244,423.055,198.263,407.819z"
   id="path6" />
	</g>
	<circle
   fill="#020202"
   cx="254.831"
   cy="164.509"
   r="20.812"
   id="circle10" />
</g>
<path
   sodipodi:type="star"
   id="path21"
   sodipodi:sides="5"
   sodipodi:cx="125.02607"
   sodipodi:cy="58.684628"
   sodipodi:r1="19.64558"
   sodipodi:r2="9.8227911"
   sodipodi:arg1="0.89605538"
   sodipodi:arg2="1.5243739"
   inkscape:flatsided="false"
   inkscape:rounded="0"
   inkscape:randomized="0"
   d="m 137.29857,74.025248 -11.81667,-5.528412 -11.25322,6.600142 1.60629,-12.946687 -9.75455,-8.662894 12.8094,-2.473081 5.22458,-11.954104 6.31036,11.418239 12.98352,1.274851 -8.90938,9.529941 z"
   inkscape:transform-center-x="0.28172082"
   inkscape:transform-center-y="-1.6060326" /><path
   sodipodi:type="star"
   id="path23"
   sodipodi:sides="5"
   sodipodi:cx="371.24304"
   sodipodi:cy="109.30868"
   sodipodi:r1="16.307304"
   sodipodi:r2="8.1536522"
   sodipodi:arg1="0.71883"
   sodipodi:arg2="1.3471485"
   inkscape:flatsided="false"
   inkscape:rounded="0"
   inkscape:randomized="0"
   d="m 383.51554,120.04711 -10.46412,-2.78785 -8.22883,7.03962 -0.58218,-10.81346 -9.23792,-5.65073 10.1043,-3.89523 2.51949,-10.531952 6.82699,8.406072 10.79504,-0.85838 -5.88499,9.09047 z"
   inkscape:transform-center-x="1.1176419"
   inkscape:transform-center-y="-0.45548598" /><path
   sodipodi:type="star"
   id="path25"
   sodipodi:sides="5"
   sodipodi:cx="59.828426"
   sodipodi:cy="203.6535"
   sodipodi:r1="22.296738"
   sodipodi:r2="11.148369"
   sodipodi:arg1="0.46364761"
   sodipodi:arg2="1.0919661"
   inkscape:flatsided="false"
   inkscape:rounded="0"
   inkscape:randomized="0"
   d="m 79.771235,213.62491 -14.806295,-0.0768 -8.457216,12.1535 -4.502315,-14.10536 -14.172098,-4.28765 12.023711,-8.64076 -0.301622,-14.80342 11.933377,8.76509 13.985685,-4.86137 -4.648478,14.05788 z"
   inkscape:transform-center-x="1.0261534"
   inkscape:transform-center-y="1.1294735" /><path
   sodipodi:type="star"
   id="path27"
   sodipodi:sides="5"
   sodipodi:cx="57.527332"
   sodipodi:cy="334.0488"
   sodipodi:r1="11.505466"
   sodipodi:r2="5.7527332"
   sodipodi:arg1="0.64350111"
   sodipodi:arg2="1.2718196"
   inkscape:flatsided="false"
   inkscape:rounded="0"
   inkscape:randomized="0"
   d="m 66.731705,340.95208 -7.509948,-1.40575 -5.415526,5.38958 -0.983757,-7.57679 -6.799282,-3.485 6.901954,-3.27696 1.213338,-7.54343 5.249399,5.55151 7.549166,-1.17709 -3.657646,6.70799 z"
   inkscape:transform-center-x="1.0472117"
   inkscape:transform-center-y="-0.053977831" /><path
   sodipodi:type="star"
   id="path29"
   sodipodi:sides="5"
   sodipodi:cx="427.2363"
   sodipodi:cy="202.11945"
   sodipodi:r1="14.143354"
   sodipodi:r2="7.0716772"
   sodipodi:arg1="0.86217005"
   sodipodi:arg2="1.4904886"
   inkscape:flatsided="false"
   inkscape:rounded="0"
   inkscape:randomized="0"
   d="m 436.44067,212.85788 -8.63707,-3.68955 -7.93585,5.02335 0.83996,-9.35447 -7.2298,-5.99515 9.1562,-2.09183 3.46759,-8.72856 4.81887,8.06166 9.37289,0.6006 -6.17797,7.07421 z"
   inkscape:transform-center-x="0.35061079"
   inkscape:transform-center-y="-1.0127667" /><path
   sodipodi:type="star"
   id="path35"
   sodipodi:sides="5"
   sodipodi:cx="435.67365"
   sodipodi:cy="301.06644"
   sodipodi:r1="18.552008"
   sodipodi:r2="9.2760038"
   sodipodi:arg1="1.0516502"
   sodipodi:arg2="1.6799687"
   inkscape:flatsided="false"
   inkscape:rounded="0"
   inkscape:randomized="0"
   d="m 444.87802,317.17409 -10.21505,-6.88687 -11.46431,4.51063 3.39319,-11.84324 -7.83254,-9.50934 12.31215,-0.43266 6.62353,-10.38773 4.21615,11.57585 11.9261,3.08937 -9.70643,7.58692 z"
   inkscape:transform-center-x="-0.62463044"
   inkscape:transform-center-y="-1.1669534" /></svg>