<?xml version="1.0" encoding="utf-8"?>
<!-- Uploaded to: SVG Repo, www.svgrepo.com, Generator: SVG Repo Mixer Tools -->
<svg fill="#000000" height="800px" width="800px" version="1.2" baseProfile="tiny" id="Layer_1" xmlns="http://www.w3.org/2000/svg" xmlns:xlink="http://www.w3.org/1999/xlink"
	  viewBox="0 0 256 256" xml:space="preserve">
<path id="XMLID_50_" d="M250,124.7l-22.1-0.1c-20-23.1-35-49.4-45.7-78.9l11-18.9c1.3-2.2,0.6-4.9-1.6-6.2s-4.9-0.5-6.2,1.7
	l-11.1,19.1c-24.4,6.1-54,5.9-91.1-0.9L72.2,21.4c-1.3-2.2-4-2.9-6.2-1.7c-1.1,0.6-1.8,1.6-2.1,2.7c-0.3,1.2-0.2,2.4,0.5,3.5
	l11.2,19.3c-3.9,15.1-9.7,29.3-17.2,42.2c-7.5,12.9-16.9,25-28.1,35.9l-22.3-0.2c-1.2,0-2.4,0.5-3.2,1.3c-0.9,0.9-1.3,2-1.3,3.2
	c0,2.5,2,4.5,4.5,4.5l22.2,0.2c19.2,21.7,34.6,48.3,45.7,78.9l-11,18.9c-1.3,2.2-0.6,4.9,1.6,6.2c2.2,1.3,4.9,0.5,6.2-1.7l11.1-19
	c29.3-6.6,60-6.3,91,0.6l11.1,19.2c1.3,2.2,4,2.9,6.2,1.7c0.7-0.4,1.3-1,1.7-1.7c0.8-1.4,0.8-3.1,0-4.5l-11.1-19.2
	c4.5-14.1,10.6-27.8,18.1-40.6c7.5-12.9,16.7-25.6,27.3-37.5l22.1,0.1c1.6,0,3.1-0.9,3.9-2.2c0.4-0.7,0.6-1.5,0.6-2.3
	C254.5,126.8,252.5,124.7,250,124.7z M168.2,52l-7.7,13.3c-17.3,3.9-37.5,4-63.2-0.7l-8.1-13.9C120.2,55.8,146.1,56.2,168.2,52z
	 M145.4,124l-4.3-7.6l7.7-13.2c3.7,7.6,7.3,14.4,12.1,20.9L145.4,124z M97.7,123.7c4.9-6.1,8.8-12.8,11.6-20l7.4,12.8l-4.3,7.3
	L97.7,123.7z M133.6,111.6l-9.2-0.1l-7.5-12.9c8.9,1.2,16.6,1.2,23.9,0.6L133.6,111.6z M125.2,144l7.6,0.1l8.2,14.1
	c-8-1.1-16.3-1.3-23.8-0.2L125.2,144z M146.7,88.9c-9.4,2.3-21.3,2.1-35.7-0.5l-7.9-13.6c19.7,3,36.1,3.1,51.2,1L146.7,88.9z
	 M103.2,93.1c-1.6,5.9-3.9,11.4-6.8,16.4c-2.9,5-6.6,9.7-10.9,14.1l-15-0.1c5.7-6.4,10.6-13.2,14.8-20.4c4.2-7.2,7.6-14.9,10.4-23
	L103.2,93.1z M85.4,132.7c7.4,8.6,13.3,19,17.9,31l-7.9,13.6c-6.6-16.6-15.4-31.7-25.7-44.6L85.4,132.7z M97.1,132.8l16.1,0.1l3.9,7
	l-8,13.8C105.5,146,101.7,139.1,97.1,132.8z M111.2,168.1c11.8-2.4,23.3-2.4,35.6,0.3l7.8,13.4c-17.3-3-34.4-3.1-51.1-0.4
	L111.2,168.1z M154,143.4c-1.9,3.3-3.6,6.7-5.2,10.3l-8.1-14l4-6.7l16.2,0.1C158.3,136.6,156,140,154,143.4z M161.8,148
	c2.9-5.1,6.5-10,10.6-14.8l15.6,0.1c-5.6,7-10.7,14.2-14.9,21.6c-4.2,7.2-7.8,14.7-10.7,22.4l-7.8-13.4
	C156.5,158.3,158.9,153,161.8,148z M172.5,124.2c-7.7-9.1-14-19.7-17.9-30.9l7.8-13.5c6.8,16.2,15.1,31,25.7,44.5L172.5,124.2z
	 M66.1,91.9c6.4-11.1,11.7-23.1,15.7-35.8l7.7,13.2c-2.8,10.4-6.8,20.3-12,29.2c-5.2,8.9-11.7,17.3-19.4,24.9l-15.3-0.1
	C51.8,113.6,59.6,103,66.1,91.9z M81.6,201.1C71.3,175,58,152,41.9,132.4l16,0.1c13.2,15.1,23.4,33.2,31.7,54.7L81.6,201.1z
	 M89.6,205.2l7.8-13.5c21-4.3,41.3-4.4,63.1,0.4l7.9,13.7C141.8,200.7,115.4,200.6,89.6,205.2z M192.7,166.6
	c-6.4,11.1-11.9,22.8-16.3,34.8l-8-13.7c3.2-9.8,7.4-19.2,12.6-28.1c5.2-9,11.6-17.7,18.9-26.1l16,0.1
	C207.1,144.2,199.2,155.3,192.7,166.6z M200,124.4c-13.8-16.1-24.8-34.7-31.7-54.7l8-13.8c9.7,25.1,23,48.1,39.7,68.6L200,124.4z"/>
</svg>