<?xml version="1.0" standalone="no"?>
<!DOCTYPE svg PUBLIC "-//W3C//DTD SVG 20010904//EN"
 "http://www.w3.org/TR/2001/REC-SVG-20010904/DTD/svg10.dtd">
<svg version="1.0" xmlns="http://www.w3.org/2000/svg"
 width="720.000000pt" height="720.000000pt" viewBox="0 0 720.000000 720.000000"
 preserveAspectRatio="xMidYMid meet">
<metadata>
Created by potrace 1.16, written by Peter Selinger 2001-2019
</metadata>
<g transform="translate(0.000000,720.000000) scale(0.100000,-0.100000)"
fill="#000000" stroke="none">
<path d="M3627 5842 c-10 -2 -57 -28 -105 -58 -123 -77 -130 -77 -249 -10 -55
31 -111 56 -126 56 -28 0 -153 -70 -174 -98 -8 -10 -13 -49 -13 -107 0 -66 -4
-97 -16 -113 -8 -12 -19 -22 -24 -22 -17 0 -421 -230 -744 -423 -180 -109
-380 -226 -445 -262 -64 -35 -128 -76 -143 -92 -26 -27 -67 -117 -169 -373
-70 -176 -66 -170 -154 -222 -44 -25 -99 -57 -122 -71 -27 -16 -68 -61 -114
-122 -46 -62 -87 -107 -115 -124 -24 -14 -61 -37 -82 -50 -62 -37 -72 -63 -72
-184 0 -99 2 -107 26 -136 27 -32 183 -125 229 -137 33 -8 45 -38 45 -114 0
-66 10 -117 74 -378 24 -100 50 -190 58 -199 7 -9 35 -26 62 -39 47 -22 51
-22 85 -7 20 8 44 17 53 20 9 3 73 -26 145 -66 87 -49 135 -70 149 -66 20 4
24 -2 39 -68 10 -39 21 -78 25 -86 4 -8 104 -71 221 -140 l214 -127 8 -105 c5
-57 10 -113 12 -124 6 -29 122 -89 157 -80 37 9 84 59 100 105 l13 39 80 -48
c325 -194 320 -192 371 -162 19 12 42 21 51 21 9 0 66 -29 127 -64 61 -35 128
-71 148 -79 38 -16 43 -26 63 -125 8 -37 56 -79 102 -88 22 -4 45 2 84 22 44
23 68 28 130 28 64 1 81 5 116 28 22 14 47 41 56 60 8 18 29 41 46 51 l31 18
0 179 c0 144 3 181 15 193 14 15 291 173 405 232 30 15 80 42 110 60 30 18
118 68 195 111 77 43 187 107 244 141 l104 63 66 -36 c117 -65 131 -75 131
-96 0 -11 15 -35 34 -54 28 -28 41 -34 77 -34 43 0 109 30 109 48 0 5 27 24
60 41 58 31 60 34 60 72 0 37 4 42 46 67 96 57 87 35 149 372 31 168 59 319
61 337 7 40 28 57 150 126 55 31 113 71 130 88 29 30 29 32 29 144 0 136 -3
140 -132 211 -70 38 -98 61 -179 152 -96 107 -96 107 -297 224 -111 64 -215
125 -232 135 -25 15 -50 64 -152 293 -74 165 -131 281 -144 290 -11 8 -235
140 -497 292 -263 152 -490 285 -507 295 -30 18 -30 19 -35 129 -3 73 -10 117
-19 128 -13 16 -170 107 -201 117 -8 3 -23 3 -33 1z m125 -78 l98 -55 0 -82
c0 -45 3 -113 6 -152 5 -67 4 -69 -11 -43 -8 15 -46 44 -83 64 -130 71 -127
58 -27 120 96 58 112 70 102 80 -7 7 -147 -73 -192 -111 l-30 -25 25 -20 c14
-11 61 -38 105 -61 44 -23 81 -42 82 -43 8 -6 12 -69 7 -108 -6 -43 -11 -50
-53 -77 -25 -16 -56 -32 -68 -35 -19 -6 -22 -2 -28 38 -9 60 -1 90 29 104 49
22 111 65 99 69 -6 2 -39 -10 -72 -26 -33 -17 -66 -31 -72 -31 -7 0 -58 27
-115 60 -56 33 -114 60 -128 60 -14 0 -78 -34 -147 -77 l-122 -77 -85 45 c-46
24 -86 48 -89 53 -7 11 4 18 106 75 102 55 126 77 110 98 -15 17 -182 103
-201 103 -24 0 16 -28 103 -72 l86 -44 -31 -19 c-17 -10 -64 -36 -103 -57
l-73 -40 0 120 0 120 78 46 c43 25 84 46 91 46 7 0 57 -25 110 -55 127 -72
139 -72 267 5 54 32 105 59 113 60 8 0 59 -25 113 -56z m-802 -310 c-6 -14
-10 -40 -10 -57 0 -26 -7 -37 -30 -50 -16 -10 -30 -25 -30 -33 0 -18 41 -75
49 -69 9 5 14 -120 6 -144 -3 -11 -44 -40 -93 -67 -170 -92 -435 -255 -482
-297 -47 -42 -88 -67 -144 -87 -29 -11 -29 -11 -8 -26 11 -8 44 -19 73 -24 57
-11 81 -25 77 -46 -3 -12 129 -92 585 -355 74 -42 136 -71 163 -75 35 -5 50
-14 75 -45 46 -58 64 -59 161 -4 46 27 117 67 158 90 41 23 99 56 128 74 29
17 71 35 92 40 35 8 111 46 180 90 25 16 25 16 -3 -18 -15 -18 -34 -46 -42
-61 -10 -20 -72 -59 -237 -150 -123 -68 -265 -147 -316 -177 -51 -29 -100 -53
-109 -53 -9 0 -166 85 -347 189 -182 104 -437 248 -566 321 -129 73 -306 173
-393 223 -87 49 -173 93 -190 97 l-32 7 28 11 c44 18 223 122 452 262 280 170
787 460 807 460 4 0 3 -12 -2 -26z m610 -57 c47 -27 88 -54 92 -60 4 -7 8 -37
8 -68 0 -46 -4 -59 -21 -70 -18 -13 -21 -25 -22 -121 l-2 -107 33 -33 32 -34
0 -122 c0 -73 4 -122 10 -122 15 0 20 34 23 150 l2 105 55 32 c30 18 58 33 62
33 11 0 10 -213 -1 -243 -6 -15 -33 -36 -75 -58 -60 -31 -68 -33 -88 -20 -13
8 -61 36 -108 63 -47 27 -88 52 -92 56 -4 4 -12 158 -18 342 -6 184 -14 338
-17 343 -16 25 -19 -36 -12 -223 4 -113 8 -264 8 -337 l1 -131 -116 -68 c-63
-37 -117 -71 -120 -76 -18 -28 -21 28 -20 339 l1 348 55 36 c193 129 193 129
220 112 14 -9 63 -39 110 -66z m575 -87 c44 -26 184 -107 310 -180 127 -73
281 -163 344 -201 l113 -67 -43 -22 c-24 -13 -55 -31 -69 -40 -65 -45 -518
-296 -545 -301 -16 -4 -57 -9 -90 -13 l-60 -5 49 25 c26 14 51 34 53 45 3 11
68 55 172 115 193 113 231 137 231 146 0 4 -35 26 -77 49 -43 23 -89 52 -103
64 -24 21 -248 155 -435 259 -49 28 -93 55 -97 61 -9 12 -11 189 -2 197 5 6
111 -50 249 -132z m-1007 6 c10 -10 14 -88 18 -322 2 -170 6 -325 8 -345 l4
-36 -82 48 c-44 27 -88 52 -96 57 -12 7 -15 59 -16 331 -1 177 0 330 3 340 4
17 12 15 76 -21 40 -22 78 -46 85 -52z m-192 -2 c-5 -13 -9 -14 -21 -4 -13 11
-13 14 2 26 20 14 29 3 19 -22z m916 -156 c-2 -73 -6 -135 -9 -138 -3 -3 -13
6 -24 19 -15 18 -19 39 -19 103 0 71 3 82 28 114 15 18 27 34 27 34 0 0 -2
-60 -3 -132z m-82 -26 l0 -79 -37 -17 c-48 -22 -90 -53 -81 -61 3 -3 34 8 68
25 55 28 100 33 100 12 0 -4 -26 -22 -57 -40 -48 -28 -62 -32 -88 -25 l-30 9
-3 94 c-1 52 1 100 5 106 5 5 33 20 63 31 30 11 56 21 58 22 1 0 2 -34 2 -77z
m217 22 c115 -66 312 -181 366 -214 20 -12 37 -26 37 -30 0 -4 -105 -68 -232
-142 -128 -74 -371 -214 -539 -311 -168 -98 -311 -177 -319 -177 -7 0 -94 44
-194 99 -309 168 -630 344 -659 361 l-28 17 203 121 c112 66 229 134 261 152
l57 32 0 -169 c0 -163 1 -170 23 -190 38 -36 195 -113 214 -106 10 3 73 39
140 80 67 40 126 73 132 73 6 0 59 -27 118 -60 59 -33 116 -60 126 -60 10 0
49 16 87 35 49 25 71 42 74 58 3 12 7 87 11 167 6 170 16 320 21 320 2 0 47
-25 101 -56z m413 -288 c-8 -7 -152 -94 -320 -191 -168 -98 -368 -215 -445
-260 -250 -146 -320 -185 -335 -185 -8 0 -82 37 -165 83 -82 46 -274 152 -426
235 -283 156 -324 181 -301 182 7 0 133 -66 280 -147 147 -80 340 -186 428
-235 89 -48 172 -88 184 -88 12 0 122 58 244 129 121 70 345 200 496 287 151
86 293 168 315 181 45 26 67 30 45 9z m79 -20 l34 -12 -42 -23 c-24 -12 -255
-143 -515 -290 -576 -328 -638 -363 -643 -357 -21 21 56 71 565 369 306 180
559 326 562 326 3 0 20 -6 39 -13z m533 -207 c47 -107 107 -239 131 -294 25
-55 62 -138 83 -185 120 -277 143 -320 168 -320 7 0 55 25 109 56 61 34 104
53 115 49 9 -3 31 -23 47 -44 60 -77 188 -226 201 -234 38 -22 3 30 -97 148
-120 141 -135 163 -122 176 8 8 228 -233 250 -276 18 -34 10 -46 -65 -89 -71
-41 -399 -230 -672 -388 -91 -52 -289 -166 -440 -253 -151 -87 -301 -173 -332
-192 -32 -18 -86 -49 -120 -69 -35 -19 -70 -41 -78 -48 -47 -39 -471 -285
-618 -359 -159 -80 -172 -79 -367 17 -178 89 -347 185 -840 479 -115 69 -289
171 -385 228 -96 56 -252 149 -347 205 -172 103 -488 284 -638 366 -74 40 -80
46 -83 79 -2 24 4 44 20 66 142 192 152 203 167 190 64 -54 553 -327 586 -327
30 0 33 5 88 170 39 117 212 603 249 697 9 24 17 31 29 28 18 -6 358 -197 774
-434 127 -72 234 -138 240 -146 6 -9 4 -30 -7 -62 -46 -133 -260 -817 -265
-846 -4 -28 0 -40 23 -64 36 -38 473 -282 517 -290 24 -4 48 4 97 30 127 68
195 114 204 138 7 20 -29 112 -202 517 -116 270 -212 500 -214 509 -2 12 13
26 47 45 28 15 55 28 60 28 6 0 20 -37 32 -82 11 -46 35 -112 51 -148 17 -36
99 -216 182 -400 84 -184 160 -340 169 -347 9 -7 28 -13 42 -13 14 0 123 53
247 120 121 66 225 120 231 120 5 0 38 -43 72 -95 65 -100 88 -117 131 -94 68
36 288 172 299 185 17 21 14 55 -16 169 -14 54 -24 104 -21 110 2 6 111 80
241 165 252 162 280 188 271 247 -4 30 -70 170 -320 686 -58 120 -106 220
-106 222 0 9 75 55 85 52 5 -2 49 -91 97 -198z m-493 146 c-8 -8 -84 -53 -169
-101 -91 -51 -170 -103 -191 -126 -51 -54 -380 -239 -449 -252 -14 -3 -112
-55 -219 -116 -107 -60 -195 -109 -196 -108 -11 12 22 51 57 69 43 22 812 458
1048 595 69 39 127 67 129 62 2 -6 -3 -16 -10 -23z m284 -362 c6 -324 5 -349
-12 -363 -9 -8 -119 -73 -244 -145 -124 -71 -228 -136 -231 -143 -10 -24 33
-3 259 128 121 69 228 130 238 133 12 5 43 -6 88 -29 l69 -36 -70 -44 c-177
-109 -397 -224 -428 -224 -11 0 -44 11 -74 25 -29 14 -61 25 -71 25 -10 0 -19
6 -22 13 -2 6 -9 169 -15 361 -10 290 -9 351 2 357 56 35 494 288 499 288 3 1
9 -155 12 -346z m-3028 252 c103 -54 224 -125 230 -135 3 -4 -44 -142 -104
-306 -59 -165 -123 -343 -140 -396 -18 -54 -36 -98 -41 -98 -4 0 -24 7 -43 15
-20 8 -55 15 -78 15 -74 0 -79 11 -79 180 0 102 -4 151 -12 162 -7 9 -37 26
-65 38 -29 13 -53 28 -53 35 0 36 178 465 206 496 45 50 74 49 179 -6z m3113
-70 c28 -60 111 -234 184 -385 140 -287 163 -338 157 -344 -6 -6 -383 184
-391 197 -7 12 -12 655 -5 646 2 -2 27 -53 55 -114z m-2139 -102 c554 -306
537 -295 533 -324 -2 -13 -5 -26 -7 -28 -5 -5 -87 38 -380 196 -518 282 -569
310 -572 320 -4 10 32 31 56 32 7 1 174 -88 370 -196z m-359 95 c53 -33 719
-397 828 -452 42 -21 52 -31 52 -51 0 -42 -29 -43 -64 -3 -35 41 -64 58 -98
58 -27 0 -63 19 -408 220 -153 89 -284 171 -310 196 -34 33 -58 46 -97 54 -66
14 -69 24 -5 18 31 -3 66 -17 102 -40z m1848 -137 c11 -6 17 -88 27 -355 13
-339 18 -376 47 -376 17 0 132 -53 140 -65 4 -5 8 -36 8 -69 l0 -58 -32 6
c-82 15 -201 18 -260 6 -76 -14 -192 -67 -232 -104 -15 -15 -31 -24 -34 -21
-4 3 -12 191 -20 416 l-13 410 23 45 c43 87 133 147 245 163 80 12 86 12 101
2z m1207 -326 c94 -54 173 -103 177 -109 14 -20 8 -36 -14 -45 -13 -5 -59 -30
-102 -56 -44 -26 -91 -47 -105 -48 -26 -2 -26 -1 -29 81 -2 45 -1 82 2 82 3 0
25 -13 49 -30 25 -16 51 -30 58 -30 8 0 -9 -14 -38 -30 -52 -30 -73 -50 -53
-50 12 0 140 69 140 75 0 2 -26 18 -57 35 -87 48 -121 84 -70 73 21 -5 21 -4
-3 16 -14 11 -54 36 -90 55 -50 26 -70 44 -83 71 -23 48 -22 50 16 27 17 -10
109 -63 202 -117z m-1591 -225 c8 -294 9 -457 3 -467 -8 -12 -235 -129 -240
-123 -20 21 -223 492 -239 554 l-20 80 21 17 c17 14 191 112 441 248 21 12 26
-31 34 -309z m-2419 214 l66 -27 -3 -143 c-1 -79 -5 -144 -8 -144 -3 0 -14 19
-25 43 -17 36 -30 47 -90 76 -59 28 -67 35 -49 41 33 13 148 90 157 106 15 27
0 20 -146 -71 -26 -17 -46 -36 -45 -44 2 -8 35 -33 73 -56 56 -33 70 -46 68
-64 -4 -35 107 -101 170 -101 53 0 107 -23 107 -44 0 -28 -12 -46 -31 -46 -37
0 -569 306 -569 327 1 20 26 39 136 103 65 38 120 69 121 69 2 1 32 -11 68
-25z m3879 0 c32 -18 45 -31 42 -41 -3 -8 -6 -40 -6 -71 0 -67 -7 -62 -50 38
-17 41 -34 81 -37 88 -7 17 -2 16 51 -14z m-253 -200 c33 -15 59 -30 59 -34 0
-7 -218 -153 -392 -263 -43 -27 -59 -44 -66 -69 -7 -27 -22 -40 -93 -81 -46
-27 -148 -87 -226 -133 -132 -78 -146 -84 -198 -84 -58 0 -67 -4 -345 -159
-30 -17 -58 -31 -62 -31 -11 0 -48 76 -48 97 0 13 32 35 113 75 l112 58 10
-50 10 -49 110 56 c61 31 182 97 270 148 176 101 172 97 174 202 l1 63 98 49
c53 27 167 90 252 140 85 50 157 90 159 91 2 0 30 -12 62 -26z m-1940 -501
c-6 -257 -14 -483 -17 -501 -5 -33 -6 -34 -26 -15 -11 10 -24 28 -29 40 -10
26 -126 93 -161 93 -23 0 -74 -37 -64 -47 2 -3 21 1 41 8 35 13 40 12 93 -18
41 -22 57 -37 57 -52 1 -36 130 -111 191 -111 22 0 59 -13 98 -35 35 -19 73
-35 86 -35 13 0 67 25 121 55 53 30 100 55 105 55 18 0 -34 -42 -104 -83 -111
-65 -138 -77 -168 -77 -28 0 -486 249 -522 284 -14 14 -1 63 91 351 31 94 85
264 122 379 61 190 68 207 82 193 14 -14 15 -62 4 -484z m254 2 c244 -571 228
-529 207 -547 -39 -34 -163 -98 -189 -98 -16 0 -51 14 -79 31 -33 22 -68 34
-107 39 -31 3 -61 11 -66 16 -9 8 -3 329 13 764 3 80 6 172 6 205 0 51 2 57
14 45 7 -8 98 -213 201 -455z m1819 435 c34 -12 33 -33 -2 -62 -40 -33 -450
-297 -463 -298 -7 0 -29 47 -29 63 0 7 69 58 153 112 83 55 184 121 222 147
75 51 81 53 119 38z m756 -114 c128 -76 109 -128 -84 -231 l-72 -39 -47 20
c-26 10 -47 21 -47 24 1 3 50 34 111 69 137 79 148 101 86 169 -28 31 -12 27
53 -12z m-5055 -6 c-36 -69 -11 -99 158 -188 64 -35 117 -65 117 -68 0 -3 -4
-3 -8 0 -5 3 -32 -6 -61 -20 -29 -13 -60 -24 -69 -24 -22 0 -211 115 -234 142
-40 45 -14 114 61 163 48 32 54 31 36 -5z m5123 -292 c-12 -21 -13 -17 -16 39
-2 38 2 71 10 85 12 21 13 17 16 -39 2 -38 -2 -71 -10 -85z m-5210 87 c14 -30
16 -105 4 -105 -15 0 -32 49 -32 90 0 46 12 52 28 15z m5171 -67 c1 -55 16
-43 -209 -173 -74 -43 -182 -106 -240 -140 -122 -72 -270 -155 -277 -155 -2 0
-3 30 -1 67 l3 67 80 46 c44 26 125 73 180 105 500 293 463 278 464 183z
m-1606 56 c31 -3 59 -9 61 -13 3 -4 -63 -45 -146 -91 -83 -47 -192 -108 -242
-136 l-91 -51 -12 85 c-15 101 -14 103 75 150 91 47 205 75 272 66 14 -2 51
-6 83 -10z m-3426 -69 c45 -29 63 -46 64 -62 1 -13 3 -27 4 -33 1 -5 3 -17 4
-25 0 -8 6 -15 11 -15 6 0 10 20 10 45 0 48 3 51 93 88 l37 16 0 -43 c0 -42
-1 -43 -66 -79 -68 -38 -98 -45 -109 -27 -4 6 -33 24 -65 40 -81 41 -90 52
-90 112 0 57 -14 60 107 -17z m3786 -81 c33 -130 36 -149 24 -168 -16 -24
-286 -186 -311 -186 -18 0 -119 146 -113 164 2 5 77 53 166 106 89 53 167 103
172 111 5 8 9 38 9 67 0 28 3 52 8 52 4 0 24 -66 45 -146z m947 126 c0 -10
-471 -293 -507 -304 -54 -17 -15 17 94 80 433 254 413 243 413 224z m-1025
-49 c-5 -28 -15 -47 -33 -59 -74 -50 -292 -172 -309 -172 -25 0 -83 20 -83 28
0 4 35 26 78 49 42 24 138 78 212 122 74 43 137 77 138 75 2 -1 1 -21 -3 -43z
m1095 19 c8 -5 12 -12 9 -15 -22 -22 -507 -295 -523 -295 -64 1 -38 22 206
168 139 83 262 152 273 152 11 0 27 -4 35 -10z m-4210 -203 c19 -16 20 -30 20
-267 0 -137 -2 -250 -4 -250 -2 0 -36 19 -77 41 -41 23 -116 64 -167 91 -51
27 -97 58 -102 68 -6 11 -10 123 -10 269 l0 250 160 -92 c88 -51 169 -100 180
-110z m2355 112 c9 -17 14 -37 11 -44 -5 -13 -216 -125 -235 -125 -10 0 -38
77 -30 84 11 9 221 116 229 116 5 0 17 -14 25 -31z m-2753 -131 c-4 -118 13
-215 76 -429 47 -158 65 -230 59 -236 -10 -9 -78 41 -82 61 -3 11 -25 107 -50
211 -25 105 -47 198 -49 209 -4 15 0 17 20 13 31 -6 31 10 0 24 -30 14 -36 34
-36 129 0 69 2 76 28 97 15 12 29 22 32 23 3 0 4 -46 2 -102z m38 -35 c0 -87
-3 -123 -10 -113 -13 20 -13 240 0 240 6 0 10 -49 10 -127z m442 -221 c5 -221
7 -231 43 -375 35 -136 39 -175 16 -151 -5 5 -28 59 -52 119 l-43 110 -4 229
c-4 252 1 324 22 307 10 -8 15 -70 18 -239z m2559 237 c69 -12 85 -22 50 -34
-10 -3 -105 -52 -211 -110 -106 -58 -201 -107 -211 -110 -21 -7 -61 32 -57 54
3 13 331 211 351 211 5 0 39 -5 78 -11z m1484 -329 c-30 -162 -58 -303 -61
-312 -5 -16 -93 -72 -101 -64 -2 2 1 136 7 297 9 223 15 297 25 308 8 8 51 35
97 60 77 43 83 45 86 26 1 -11 -22 -153 -53 -315z m-3949 268 c27 -14 55 -32
61 -40 11 -13 30 -418 20 -418 -20 0 -135 61 -141 75 -9 23 -8 417 2 413 4 -2
30 -15 58 -30z m3464 -11 l45 -22 3 -72 3 -73 -34 23 c-19 12 -70 40 -115 62
-44 22 -81 42 -81 45 -1 6 111 60 124 59 6 0 30 -10 55 -22z m-3258 -111 c51
-29 127 -74 168 -98 l75 -45 3 -225 c2 -173 -1 -228 -10 -235 -21 -16 -202
-93 -219 -93 -28 0 -36 20 -78 187 l-41 162 0 201 c0 110 2 200 5 200 2 0 46
-24 97 -54z m3064 11 c-2 -17 -4 -60 -5 -94 0 -35 -5 -63 -11 -63 -11 0 -14
182 -4 193 13 13 22 -4 20 -36z m512 -23 c2 -32 -4 -185 -13 -339 -13 -240
-18 -282 -33 -293 -23 -19 -129 -72 -142 -72 -6 0 -10 68 -10 195 0 107 -4
195 -8 195 -4 0 -12 -4 -17 -9 -18 -17 -227 -132 -232 -128 -8 9 30 457 39
457 5 0 40 -16 79 -35 40 -21 78 -33 88 -30 10 3 65 32 122 64 57 33 109 58
114 57 6 -2 11 -29 13 -62z m-558 -6 l-1 -53 -14 33 c-13 31 -30 41 -37 24 -1
-5 -72 -50 -157 -101 -109 -65 -162 -91 -180 -89 -28 3 -38 -4 211 142 53 31
104 56 112 56 9 0 16 3 16 8 0 6 9 12 48 31 1 0 2 -23 2 -51z m102 38 c17 -12
16 -26 -2 -256 -11 -134 -24 -248 -30 -254 -18 -18 -20 0 -5 37 14 33 13 39
-4 69 -17 30 -18 45 -11 168 5 74 9 161 9 193 1 60 10 69 43 43z m-129 -80 c6
-14 -10 -31 -48 -52 -11 -6 -73 -41 -138 -79 -92 -53 -120 -66 -130 -56 -16
16 5 31 150 117 62 36 115 70 118 75 9 14 42 11 48 -5z m17 -61 c0 -28 -53
-66 -198 -140 -48 -24 -99 -52 -113 -61 -25 -16 -28 -16 -98 26 -64 37 -71 44
-59 57 36 35 118 6 118 -41 0 -12 4 -28 10 -36 7 -12 11 -9 19 11 6 18 47 47
143 102 74 42 143 83 153 92 26 19 25 19 25 -10z m-3393 -201 c17 -15 109
-233 100 -240 -1 -1 -78 42 -172 95 l-170 97 -37 109 c-20 61 -37 113 -37 116
-1 9 288 -154 316 -177z m3423 78 l-1 -77 -39 45 c-22 25 -40 49 -40 54 0 13
63 65 73 59 4 -2 7 -39 7 -81z m-2537 -51 c59 -35 112 -72 118 -83 10 -18 12
-403 2 -420 -4 -7 -334 180 -346 196 -8 12 -8 336 0 397 l5 37 56 -32 c32 -18
106 -61 165 -95z m2478 14 c50 -54 89 -109 89 -127 0 -14 -79 -58 -103 -58 -7
0 -28 16 -47 35 -30 31 -35 43 -38 99 -4 57 -2 65 19 80 13 9 27 16 31 16 4 0
26 -20 49 -45z m-385 -37 l78 -42 83 44 c46 24 85 41 88 38 6 -5 24 -236 25
-304 0 -30 -7 -35 -168 -128 -92 -53 -171 -96 -176 -96 -4 0 2 15 13 34 12 18
21 40 21 49 0 8 -32 55 -71 104 l-70 88 5 110 c5 95 9 112 27 128 32 26 60 21
145 -25z m-2791 -12 c33 -14 65 -33 71 -43 6 -10 28 -85 48 -168 21 -82 43
-157 49 -166 11 -15 93 -63 442 -262 218 -123 293 -162 302 -154 4 4 -7 69
-24 145 -17 75 -30 138 -29 140 2 1 41 -16 88 -38 90 -42 97 -50 98 -120 1
-48 82 -278 107 -304 11 -12 31 -29 44 -38 24 -16 24 -17 4 -32 -33 -26 -63
-18 -159 38 -84 50 -172 101 -373 216 -232 132 -600 353 -614 368 -9 10 -37
105 -63 217 -26 110 -49 206 -51 213 -5 15 -11 16 60 -12z m2595 -100 c0 -114
0 -113 90 -227 22 -28 39 -57 37 -63 -5 -18 -92 -60 -110 -53 -8 3 -34 31 -58
63 -37 51 -40 58 -24 66 51 29 58 46 51 131 -8 91 -16 111 -53 130 l-26 14 39
20 c21 11 42 21 47 22 4 0 7 -46 7 -103z m970 -88 c0 -90 -4 -168 -8 -175 -5
-8 -52 13 -150 67 -79 43 -148 82 -153 87 -7 7 281 181 304 182 4 1 7 -72 7
-161z m-1096 108 c-29 -22 -374 -231 -412 -250 -51 -26 -51 -11 -1 19 24 14
130 77 234 139 105 63 192 112 194 110 3 -2 -4 -11 -15 -18z m-1534 -27 c118
-64 110 -48 110 -234 0 -90 -3 -176 -6 -192 l-6 -30 -91 46 -92 46 -3 203 c-1
111 1 202 5 202 5 0 42 -19 83 -41z m-1319 12 c30 -18 30 -20 11 -30 -36 -19
-52 -14 -52 19 0 35 0 36 41 11z m2923 -5 c14 -23 15 -22 -214 -152 -287 -164
-313 -175 -278 -122 9 13 91 69 184 125 93 56 194 118 224 137 59 38 68 39 84
12z m595 -61 c1 -14 -37 -95 -44 -95 -3 0 -5 37 -5 83 l0 82 25 -30 c13 -16
24 -34 24 -40z m103 1 c-24 -38 -98 -94 -110 -82 -11 11 43 77 81 100 58 33
60 32 29 -18z m-672 -49 c0 -48 -27 -76 -131 -133 -41 -23 -189 -108 -329
-190 -296 -172 -343 -193 -421 -194 -73 0 -122 18 -235 86 -100 59 -103 63
-102 157 0 43 3 50 31 68 43 26 59 24 141 -15 147 -69 175 -70 297 -12 85 41
100 42 146 18 l33 -17 -103 -58 c-179 -100 -246 -99 -424 3 -57 32 -105 55
-108 50 -7 -11 172 -118 230 -138 54 -19 157 -11 220 17 28 12 95 48 150 80
128 75 440 254 525 301 72 40 80 37 80 -23z m-1283 -99 l112 -64 -35 -27 c-33
-27 -34 -29 -34 -106 0 -87 5 -95 91 -145 l46 -26 6 -98 c3 -53 9 -108 13
-121 7 -23 -1 -20 -107 36 -63 33 -151 80 -196 103 -46 22 -90 48 -98 56 -13
13 -15 55 -15 253 0 131 3 240 6 244 7 7 57 -18 211 -105z m-649 -87 c86 -49
167 -98 180 -108 17 -14 30 -48 52 -141 17 -68 30 -125 30 -128 0 -3 -12 3
-27 13 -16 11 -164 95 -331 189 -166 93 -301 173 -299 177 4 14 179 85 210 86
17 1 85 -32 185 -88z m2894 18 c27 -16 54 -29 61 -30 7 0 -3 -5 -20 -10 -44
-13 -97 10 -118 51 -16 31 -16 32 6 25 12 -4 44 -20 71 -36z m-984 -24 c23
-30 42 -63 42 -73 0 -30 -57 -116 -89 -135 l-31 -18 0 140 c0 167 8 176 78 86z
m-528 17 c0 -10 -3 -21 -6 -25 -5 -5 -62 10 -74 20 -9 8 25 23 53 23 20 0 27
-5 27 -18z m430 -122 c0 -87 -4 -140 -10 -140 -6 0 -10 51 -10 133 0 117 3
147 17 147 2 0 3 -63 3 -140z m-40 -22 l0 -133 -116 -65 c-64 -36 -124 -76
-135 -89 -17 -21 -19 -42 -19 -197 l0 -172 -87 -56 c-138 -88 -127 -109 -131
253 -3 338 -7 315 60 354 163 97 216 127 308 179 58 32 108 58 113 58 4 0 7
-60 7 -132z m286 55 c-22 -33 -88 -83 -110 -83 -3 0 2 16 12 36 11 24 34 46
67 65 27 15 51 26 53 24 2 -2 -8 -21 -22 -42z m-796 -524 l0 -299 -26 -10
c-14 -6 -27 -10 -30 -10 -2 0 -4 135 -4 299 0 296 0 300 22 315 12 8 25 13 30
10 4 -3 8 -140 8 -305z m-1330 201 c0 -25 3 -69 7 -98 l6 -53 -31 18 c-17 10
-28 21 -26 25 3 4 -1 5 -9 2 -11 -4 -16 10 -21 57 -3 34 -6 79 -6 101 l0 39
40 -23 c37 -21 40 -26 40 -68z m984 75 c36 -15 36 -16 36 -75 0 -67 -6 -71
-57 -40 -31 18 -33 23 -33 75 0 30 4 55 9 55 5 0 25 -7 45 -15z m276 -304 l0
-299 -47 -26 c-25 -15 -48 -24 -51 -22 -6 6 -110 450 -117 501 -4 22 -2 58 2
80 l9 40 66 2 c36 2 77 7 89 12 51 20 49 30 49 -288z m-458 140 c64 -34 121
-67 127 -75 11 -13 62 -216 54 -216 -3 0 -53 28 -111 62 -59 34 -142 81 -184
106 -42 24 -82 49 -88 56 -8 11 -80 202 -80 214 0 2 37 -17 83 -41 45 -24 134
-72 199 -106z m-669 56 c25 -17 28 -24 22 -56 -8 -40 -51 -87 -90 -97 -14 -3
-28 -5 -29 -3 -2 2 -7 53 -11 112 l-7 109 43 -22 c24 -13 57 -32 72 -43z m859
-44 c9 -3 22 -18 28 -34 13 -30 119 -472 115 -477 -2 -2 -19 7 -38 18 -22 13
-40 33 -46 53 -16 51 -111 432 -111 446 0 9 6 11 18 6 9 -4 25 -9 34 -12z
m-987 -91 c-3 -3 -11 0 -18 7 -9 10 -8 11 6 5 10 -3 15 -9 12 -12z m1474 -319
c-8 -9 -32 -24 -54 -34 -43 -20 -110 -26 -100 -9 3 6 18 10 33 10 15 1 47 12
72 25 53 29 67 31 49 8z"/>
<path d="M2765 5268 c-22 -11 -41 -22 -43 -23 -2 -2 -9 -39 -16 -82 -11 -74
-14 -78 -37 -76 -67 5 -86 8 -109 20 -14 7 -32 13 -40 13 -23 0 -80 -38 -80
-53 0 -15 67 -50 80 -42 5 3 17 1 27 -4 10 -6 45 -17 78 -25 l59 -15 52 30
c56 32 69 49 51 69 -8 9 -8 11 -1 7 14 -8 41 180 28 193 -5 5 -27 -1 -49 -12z
m26 -69 c-6 -35 -13 -78 -16 -94 -4 -23 -15 -36 -49 -55 -42 -22 -47 -23 -101
-11 -52 12 -56 14 -42 29 14 13 24 14 64 5 26 -6 51 -9 54 -7 4 2 12 42 19 88
11 79 13 84 43 98 18 9 33 14 35 13 2 -2 -2 -32 -7 -66z m-252 -120 c-13 -10
-30 -16 -37 -14 -8 3 -18 5 -23 5 -5 0 -9 4 -9 8 0 14 42 29 68 24 l25 -5 -24
-18z m11 -19 c-14 -10 -27 -17 -29 -14 -6 5 31 33 44 33 6 1 -1 -8 -15 -19z
m-75 -8 c-3 -3 -11 0 -18 7 -9 10 -8 11 6 5 10 -3 15 -9 12 -12z m300 0 c-22
-20 -85 -53 -85 -45 0 9 69 52 85 53 5 0 5 -3 0 -8z m-131 -34 c21 -5 36 -12
33 -14 -6 -6 -116 22 -125 31 -7 7 15 3 92 -17z"/>
<path d="M2196 4931 c-176 -108 -190 -123 -154 -174 35 -52 81 -97 98 -97 8 0
56 26 105 58 50 31 116 73 148 92 32 19 66 43 74 53 15 16 15 20 -5 47 -12 16
-22 32 -22 35 0 13 -64 85 -74 84 -6 0 -83 -44 -170 -98z m194 65 c-1 -17
-329 -229 -345 -222 -40 15 -11 41 164 149 143 88 181 103 181 73z m24 -35 c3
-5 -59 -50 -139 -101 -130 -82 -160 -110 -121 -110 6 0 71 36 143 80 127 77
153 90 153 71 0 -17 -298 -204 -315 -197 -7 2 -22 18 -33 34 l-21 29 152 101
c151 100 171 110 181 93z m12 -30 c-5 -7 -233 -149 -271 -169 -41 -20 35 34
137 99 118 75 146 90 134 70z m24 -72 c-8 -4 -53 -33 -100 -63 -47 -30 -113
-71 -148 -92 l-63 -37 -35 34 c-19 18 -34 37 -34 43 0 5 16 -5 35 -24 l35 -34
32 17 c18 9 89 53 158 96 68 44 127 78 130 75 2 -3 -2 -10 -10 -15z"/>
</g>
</svg>
