<?xml version="1.0" encoding="UTF-8" standalone="no"?>
<!-- Created with Inkscape (http://www.inkscape.org/) -->

<svg
   xmlns:dc="http://purl.org/dc/elements/1.1/"
   xmlns:cc="http://creativecommons.org/ns#"
   xmlns:rdf="http://www.w3.org/1999/02/22-rdf-syntax-ns#"
   xmlns:svg="http://www.w3.org/2000/svg"
   xmlns="http://www.w3.org/2000/svg"
   xmlns:sodipodi="http://sodipodi.sourceforge.net/DTD/sodipodi-0.dtd"
   xmlns:inkscape="http://www.inkscape.org/namespaces/inkscape"
   inkscape:version="0.92.5 (2060ec1f9f, 2020-04-08)"
   sodipodi:docname="trex001.svg"
   viewBox="0 0 880 880"
   height="880"
   width="880"
   xml:space="preserve"
   id="svg815"
   version="1.1"><metadata
     id="metadata821"><rdf:RDF><cc:Work
         rdf:about=""><dc:format>image/svg+xml</dc:format><dc:type
           rdf:resource="http://purl.org/dc/dcmitype/StillImage" /><dc:title></dc:title></cc:Work></rdf:RDF></metadata><defs
     id="defs819"><clipPath
       clipPathUnits="userSpaceOnUse"
       id="clipPath831"><path
         d="M 0,660 H 660 V 0 H 0 Z"
         id="path829"
         inkscape:connector-curvature="0" /></clipPath></defs><sodipodi:namedview
     pagecolor="#ffffff"
     bordercolor="#666666"
     borderopacity="1"
     objecttolerance="10"
     gridtolerance="10"
     guidetolerance="10"
     inkscape:pageopacity="0"
     inkscape:pageshadow="2"
     inkscape:window-width="2560"
     inkscape:window-height="1381"
     id="namedview817"
     showgrid="false"
     inkscape:zoom="3.8590909"
     inkscape:cx="431.08113"
     inkscape:cy="223.84583"
     inkscape:window-x="0"
     inkscape:window-y="0"
     inkscape:window-maximized="1"
     inkscape:current-layer="g823" /><g
     id="g823"
     inkscape:groupmode="layer"
     inkscape:label="dinosaur-silhouette-freesvg.org"
     transform="matrix(1.3333333,0,0,-1.3333333,0,880)"><g
       id="g1076"><path
         inkscape:connector-curvature="0"
         id="path925"
         style="fill:#231f20;fill-opacity:1;fill-rule:evenodd;stroke:none"
         d="m 383.602,301.524 -0.86,-35.699 50.751,-2.58 12.042,17.634 10.752,-18.495 7.313,21.507 16.344,-11.615 0.998,1.8 c 4.691,8.44 3.826,18.346 -2.256,25.844 l -1.421,1.755 c -3.898,4.807 -9.051,7.488 -15.226,7.919 -6.175,0.434 -11.653,-1.5 -16.185,-5.716 l -14.082,-13.107 z m 187.139,107.828 c 3.484,3.46 -1.042,12.575 -5.861,13.51 -4.805,0.931 -12.366,-5.86 -10.418,-10.35 2.201,-5.072 12.359,-7.055 16.279,-3.16 m -14.226,44.314 c -5.583,3.495 -16.866,-1.486 -18.086,-7.958 -1.082,-5.73 9.491,-11.633 14.83,-9.283 5.353,2.355 8.212,14.138 3.256,17.241 m 31.645,17.166 c -7.145,4.474 -21.588,-1.901 -23.151,-10.186 -1.386,-7.337 12.151,-14.892 18.982,-11.885 6.854,3.016 10.515,18.098 4.169,22.071 m 41.346,20.313 c -9.956,6.233 -30.078,-2.65 -32.257,-14.194 -1.931,-10.222 16.93,-20.747 26.451,-16.558 9.546,4.201 14.648,25.217 5.806,30.752 m -26.518,-81.561 c 3.289,4.836 -4.068,14.472 -9.918,14.474 -5.831,0.002 -13.137,-9.655 -9.84,-14.466 3.721,-5.433 16.054,-5.454 19.758,-0.008 M 436.03,548.428 c 0.461,-1.248 0.765,-2.707 0.864,-4.282 -0.606,1.124 -1.509,1.836 -2.517,1.836 -1.826,0 -3.307,-2.334 -3.307,-5.214 0,-2.881 1.481,-5.215 3.307,-5.215 0.24,0 0.475,0.04 0.7,0.118 -0.906,-1.416 -2.081,-2.27 -3.362,-2.27 -2.88,0 -5.216,4.309 -5.216,9.624 0,0.742 0.046,1.463 0.133,2.157 -0.992,-2.276 -9.55457,-3.50592 -9.27972,-11.1729 0.26374,-7.35727 -0.55709,-23.07055 15.14514,-22.6768 16.69972,0.41877 14.04676,17.37616 11.84798,25.42528 -1.29755,4.74996 -6.1374,9.36142 -8.3154,11.67042 m -36.465,-5.752 c 171.214,112.688 265.638,104.826 253.111,-70.938 -1.664,-1.617 -3.389,-3.181 -5.158,-4.694 0.038,-8.006 -4.255,-17.613 -10.379,-20.306 -4.543,-2 -11.212,-0.645 -16.736,2.425 -3.033,-1.57 -6.135,-3.072 -9.298,-4.514 -1.208,-3.978 -3.589,-7.584 -6.574,-8.899 -3.031,-1.333 -7.379,-0.588 -11.159,1.292 0.996,-5.908 5.564,-10.39 11.649,-13.559 2.096,2.433 4.887,4.232 7.404,4.23 4.201,-0.001 9.183,-4.975 10.434,-9.569 3.167,-0.433 6.281,-0.629 9.172,-0.598 4.29,-39.443 -50.078,-39.928 -118.707,-31.827 7.788,-38.767 9.97,-72.782 7.16,-102.557 l 14.081,-3.141 14.083,13.103 c 4.534,4.216 10.01,6.153 16.185,5.721 6.174,-0.435 11.327,-3.116 15.225,-7.924 l 1.423,-1.755 c 6.08,-7.498 6.943,-17.402 2.254,-25.842 l -0.998,-1.798 -16.344,11.612 -7.31,-21.506 -10.754,18.496 -12.042,-17.635 -20.549,1.044 C 497.52917,175.09423 438.31524,131.51299 352.41376,110.89967 340.18031,107.96408 327.40561,105.49431 314.131,103.456 c 22.07512,3.68943 25.70679,-1.07254 37.18337,1.25961 L 349.42,99.165 340.484,79.72 c 5.887,-0.905 11.772,-1.808 17.657,-2.713 11.815,-1.815 20.705,-10.748 22.462,-22.571 1.038,-6.988 0.692,-14.659 -1.309,-23.154 -11.93,3.7 -23.862,7.4 -35.794,11.1 -4.553,-3.561 -9.104,-7.12 -13.657,-10.68 -8.317,1.599 -16.634,3.2 -24.951,4.801 -6.809,-1.074 -13.619,-2.147 -20.429,-3.218 -3.414,8.162 -6.829,16.323 -10.244,24.485 -4.366,10.433 -3.386,21.486 2.656,30.816 2.166,3.347 3.404,7.011 3.719,10.712 -3.259,-0.314 -6.535,-0.613 -9.844,-0.885 -3.829,-0.314 -7.624,-0.561 -11.397,-0.774 1.084,4.577 1.668,9.417 1.668,14.426 0,22.329 -11.558,41.327 -27.702,48.421 l 0.135,-0.167 c 16.062,-19.824 19.184,-45.414 8.362,-68.519 -3.767,-8.039 -7.532,-16.079 -11.298,-24.118 5.879,-0.948 11.758,-1.894 17.637,-2.842 11.803,-1.902 20.625,-10.901 22.296,-22.736 0.986,-6.993 0.585,-14.663 -1.478,-23.141 -11.903,3.787 -23.808,7.574 -35.712,11.361 -4.578,-3.529 -9.157,-7.054 -13.736,-10.582 -8.305,1.662 -16.609,3.323 -24.914,4.985 -6.818,-1.023 -13.635,-2.044 -20.451,-3.067 -3.356,8.188 -6.711,16.373 -10.066,24.558 -4.289,10.467 -3.226,21.51 2.883,30.797 5.401,8.211 5.167,18.39 -0.609,26.343 l -0.758,1.044 C 65.478,127.226 2.408,203.562 9.251,345.289 41.435,263.976 85.659,204.813 175.269,229.162 c 44.2,95.561 108.025,166.263 221.069,174.621 16.025,23.468 8.235,46.94 -9.035,70.409 -8.087,10.993 -10.986,23.443 -8.58,36.877 2.406,13.432 9.442,24.105 20.842,31.607"
         sodipodi:nodetypes="ccccccccccccccccccccccccccccccccccccssscsscssscccccccccccccccccccccccccccsccccccccccccccccsccccccccccccccccccccc" /><path
         inkscape:connector-curvature="0"
         id="path927"
         style="fill:#231f20;fill-opacity:1;fill-rule:evenodd;stroke:none"
         d="m 103.979,266.794 c 14.134,0 25.591,-11.456 25.591,-25.592 0,-2.235 -0.287,-4.402 -0.825,-6.471 -12.079,0.969 -23.942,4.17 -35.316,10.353 -4.241,2.307 -8.29,4.967 -12.16,7.924 4.267,8.191 12.835,13.786 22.71,13.786 m 87.526,31.826 c 3.192,0 6.268,-0.49 9.16,-1.399 -10.763,-16.057 -20.567,-33.412 -29.601,-51.824 -6.199,5.59 -10.096,13.684 -10.096,22.687 0,16.865 13.671,30.536 30.537,30.536 m 51.181,79.138 c 9.3,0 17.778,-3.514 24.181,-9.287 -19.139,-14.197 -36.11,-31.26 -51.318,-50.688 -5.596,6.364 -8.991,14.708 -8.991,23.848 0,19.952 16.175,36.127 36.128,36.127 m 88.814,40 c 8.687,0 16.516,-3.652 22.044,-9.503 -18.848,-4.361 -36.224,-10.644 -52.287,-18.652 1.111,15.734 14.226,28.155 30.243,28.155 M 44.196,305.072 c 12.47,0 22.58,-10.11 22.58,-22.578 0,-4.514 -1.325,-8.718 -3.606,-12.246 -8.921,10.318 -16.644,22.146 -23.374,34.396 1.424,0.28 2.894,0.428 4.4,0.428" /></g></g></svg>