<?xml version="1.0" encoding="UTF-8" standalone="no"?>
<!-- Created with Inkscape (http://www.inkscape.org/) -->

<svg
   xmlns:dc="http://purl.org/dc/elements/1.1/"
   xmlns:cc="http://creativecommons.org/ns#"
   xmlns:rdf="http://www.w3.org/1999/02/22-rdf-syntax-ns#"
   xmlns:svg="http://www.w3.org/2000/svg"
   xmlns="http://www.w3.org/2000/svg"
   xmlns:sodipodi="http://sodipodi.sourceforge.net/DTD/sodipodi-0.dtd"
   xmlns:inkscape="http://www.inkscape.org/namespaces/inkscape"
   version="1.1"
   id="svg815"
   xml:space="preserve"
   width="880"
   height="880"
   viewBox="0 0 880 880"
   sodipodi:docname="trex002.svg"
   inkscape:version="0.92.5 (2060ec1f9f, 2020-04-08)"><metadata
     id="metadata821"><rdf:RDF><cc:Work
         rdf:about=""><dc:format>image/svg+xml</dc:format><dc:type
           rdf:resource="http://purl.org/dc/dcmitype/StillImage" /><dc:title /></cc:Work></rdf:RDF></metadata><defs
     id="defs819"><clipPath
       clipPathUnits="userSpaceOnUse"
       id="clipPath831"><path
         d="M 0,660 H 660 V 0 H 0 Z"
         id="path829"
         inkscape:connector-curvature="0" /></clipPath></defs><sodipodi:namedview
     pagecolor="#ffffff"
     bordercolor="#666666"
     borderopacity="1"
     objecttolerance="10"
     gridtolerance="10"
     guidetolerance="10"
     inkscape:pageopacity="0"
     inkscape:pageshadow="2"
     inkscape:window-width="2560"
     inkscape:window-height="1381"
     id="namedview817"
     showgrid="false"
     inkscape:zoom="0.96477273"
     inkscape:cx="269.49352"
     inkscape:cy="481.46054"
     inkscape:window-x="0"
     inkscape:window-y="0"
     inkscape:window-maximized="1"
     inkscape:current-layer="g823" /><g
     id="g823"
     inkscape:groupmode="layer"
     inkscape:label="dinosaur-stencil-silhouette-freesvg.org"
     transform="matrix(1.3333333,0,0,-1.3333333,0,880)"><path
       d="m 584.034,228.462 c 3.494,4.829 11.867,3.124 18.701,-3.808 6.836,-6.932 9.543,-16.465 6.051,-21.293 -3.494,-4.828 -11.869,-3.12 -18.704,3.81 -6.835,6.932 -9.542,16.465 -6.048,21.291 m -50.598,90.207 c 3.494,4.828 11.478,3.518 17.834,-2.929 6.353,-6.445 8.672,-15.581 5.18,-20.409 -3.495,-4.831 -11.48,-3.518 -17.835,2.927 -6.355,6.443 -8.674,15.583 -5.179,20.411 m 14.179,-43.755 c 4.376,6.044 14.973,3.799 23.667,-5.018 8.694,-8.817 12.194,-20.868 7.819,-26.913 -4.376,-6.046 -14.973,-3.799 -23.667,5.018 -8.694,8.816 -12.195,20.865 -7.819,26.913 M 121.18,433.389 c 11.016,0 19.948,-8.932 19.948,-19.95 0,-7.949 -4.649,-14.811 -11.377,-18.017 1.862,3.032 2.936,6.601 2.936,10.421 0,11.016 -8.932,19.948 -19.949,19.948 -3.069,0 -5.974,-0.694 -8.572,-1.931 3.508,5.715 9.815,9.529 17.014,9.529 M 289.191,319.323 c 5.96,0 9.49,-7.786 7.88,-17.385 -1.608,-9.601 -7.741,-17.387 -13.7,-17.387 -5.962,0 -9.489,7.786 -7.882,17.387 1.609,9.599 7.743,17.385 13.702,17.385 m 52.315,43.228 c 3.641,0 5.709,-5.308 4.611,-11.857 -1.096,-6.548 -4.938,-11.856 -8.582,-11.856 -3.644,0 -5.71,5.308 -4.612,11.856 1.097,6.549 4.94,11.857 8.583,11.857 m -8.908,50.648 c 5.958,0 9.579,-7.235 8.084,-16.163 -1.496,-8.925 -7.538,-16.163 -13.498,-16.163 -5.959,0 -9.581,7.238 -8.083,16.163 1.493,8.928 7.536,16.163 13.497,16.163 m -27.133,-37.142 c 7.464,0 11.858,-9.9 9.812,-22.112 -2.046,-12.214 -9.754,-22.114 -17.216,-22.114 -7.463,0 -11.858,9.9 -9.812,22.114 2.045,12.212 9.754,22.112 17.216,22.112 m -75.012,152.49 c 11.016,0 19.947,-8.931 19.947,-19.947 0,-11.019 -8.931,-19.95 -19.947,-19.95 -11.019,0 -19.949,8.931 -19.949,19.95 0,11.016 8.93,19.947 19.949,19.947 m 11.79,22.597 c 23.497,0 42.544,-19.048 42.544,-42.544 0,-23.498 -19.047,-42.546 -42.544,-42.546 -23.496,0 -42.544,19.048 -42.544,42.546 0,23.496 19.048,42.544 42.544,42.544 M 403.74,321.305 c 5.606,-4.424 8.651,-10.484 8.854,-17.623 0.204,-7.135 -2.49,-13.359 -7.833,-18.096 -32.961,-29.215 -75.927,-46.023 -121.29,-46.023 h -5.657 c -6.649,7.611 -16.076,12.076 -26.889,13.099 l 33.862,14.589 c 46.806,20.163 74.813,68.672 68.873,119.289 l 10.846,-19.321 c 9.989,-17.792 23.341,-33.372 39.234,-45.914 m 65.927,-81.829 c 1.158,-9.586 -3.347,-18.436 -11.78,-23.141 -49.315,-27.501 -112.081,-29.603 -170.033,-4.57 l -0.104,0.045 c -0.035,5.309 -0.95,10.606 -2.724,15.447 13.469,5.377 27.586,8.983 41.995,10.719 35.607,4.291 68.774,19.207 95.4,42.381 5.408,4.709 11.966,6.577 19.041,5.421 7.078,-1.154 12.7,-5.005 16.334,-11.188 6.267,-10.659 10.355,-22.599 11.871,-35.114 m 113.368,49.439 c -3.142,37.725 -22.972,72.07 -54.07,93.654 -24.24,16.826 -49.839,31.603 -76.529,44.185 -40.368,19.027 -71.81,52.021 -91.879,91.879 -26.02,51.674 -75.77,62.64 -118.314,51.141 -45.196,-12.215 -80.514,-8.79 -100.475,-51.141 C 126.753,486.777 101.117,461.14 69.26,446.125 48.205,436.201 32.587,417.51 26.563,395.026 c -6.025,-22.484 -1.846,-46.48 11.427,-65.602 3.369,-4.856 8.381,-7.995 13.833,-9.105 l 1.533,-5.796 c 2.12,-8.004 8.372,-14.258 16.377,-16.376 l -0.169,4.221 c -0.241,6.018 -0.241,12.043 0,18.063 l -5.254,0.963 c 0.47,0.184 0.936,0.384 1.398,0.601 1.961,0.926 3.949,1.77 5.958,2.533 l 1.106,-4.177 c 2.119,-8.005 8.372,-14.258 16.377,-16.376 l -0.17,4.219 c -0.24,6.02 -0.24,12.046 0,18.064 l -7.409,1.359 c 4.679,1.148 9.432,1.888 14.209,2.224 l 0.644,-6.997 c 0.76,-8.247 5.887,-15.451 13.429,-18.869 l 0.535,4.189 c 0.762,5.975 1.763,11.917 3.001,17.814 l -11.219,4.069 c 4.329,-0.025 8.657,-0.383 12.943,-1.071 l 0.645,-7.002 c 0.76,-8.246 5.888,-15.453 13.429,-18.871 l 0.535,4.189 c 0.724,5.673 1.663,11.316 2.815,16.919 1.728,-0.678 3.442,-1.417 5.134,-2.216 2,-0.942 4.027,-1.804 6.078,-2.584 1.481,-7.154 6.296,-13.247 13.045,-16.308 l 0.535,4.189 c 0.339,2.659 0.726,5.31 1.158,7.953 3.7,-0.698 7.435,-1.154 11.18,-1.365 2.327,-4.665 6.206,-8.485 11.106,-10.708 l 0.535,4.189 c 0.286,2.247 0.608,4.488 0.962,6.724 9.999,0.893 19.878,3.529 29.172,7.91 l -12.294,-22.149 c -6.935,-12.495 -16.668,-22.845 -28.16,-30.462 0.94,1.481 1.801,3.025 2.575,4.618 l 1.933,3.987 c -3.321,-3.394 -7.51,-5.815 -12.11,-6.993 l -6.407,-1.642 c 9.701,8.67 13.343,22.262 9.276,34.621 l -2.227,6.765 c 1.021,-9.609 -4.071,-18.792 -12.672,-23.047 l 4.731,6.54 c -3.065,2.957 -6.011,6.036 -8.83,9.227 l -1.977,2.235 c -3.05,-4.995 -3.187,-11.242 -0.357,-16.364 l 2.074,-3.753 c -3.034,-1.624 -5.887,-3.533 -8.523,-5.691 l 2.362,4.946 c -5.058,3.362 -9.98,6.927 -14.754,10.681 l -3.348,2.633 c -3.002,-7.793 -1.591,-16.594 3.695,-23.059 l 3.412,-4.173 c -2.424,-3.202 -4.491,-6.696 -6.144,-10.422 l -0.26,-0.582 0.575,6.217 c -5.862,1.393 -11.663,3.021 -17.393,4.878 l -4.019,1.303 c -0.12,-8.281 4.211,-15.99 11.346,-20.19 l 6.836,-4.025 c 0.979,-27.759 34.7,-46.647 56.534,-33.48 36.889,22.248 50.859,26.257 72.304,24.232 24.181,-2.286 27.479,-26.424 21.928,-39.306 -7.946,-18.45 -37.877,-39.036 -67.588,-39.022 h 227.413 l -161.11,13.877 c 6.02,5.859 10.939,12.475 14.032,19.653 0.727,1.685 1.336,3.437 1.832,5.23 15.188,-0.808 30.451,-3.537 45.409,-8.122 41.031,-12.579 83.23,-11.732 120.159,1.926 6.114,2.264 12.195,1.99 18.081,-0.809 5.887,-2.797 9.938,-7.342 12.042,-13.511 2.304,-6.746 4.597,-13.05 6.499,-18.244 h 154.83 c -3.458,85.574 -51.48,79.642 -60.111,128.397 M 45.52,444.735 c 11.016,0 19.948,-8.931 19.948,-19.948 0,-2.696 -0.536,-5.266 -1.506,-7.611 -3.6,5.204 -9.61,8.615 -16.418,8.615 -8.321,0 -15.451,-5.096 -18.443,-12.337 -2.226,3.219 -3.531,7.123 -3.531,11.333 0,11.017 8.931,19.948 19.95,19.948 m 80.952,54.4 c -0.691,3.044 -1.058,6.21 -1.058,9.465 0,23.479 19.023,42.516 42.497,42.544 -12.946,-10.478 -24.094,-23.365 -32.567,-38.153 -2.731,-4.765 -5.694,-9.388 -8.872,-13.856"
       style="fill:#231f20;fill-opacity:1;fill-rule:evenodd;stroke:none"
       id="path925"
       inkscape:connector-curvature="0" /></g></svg>