<?xml version="1.0" encoding="utf-8"?>
<!-- Uploaded to: SVG Repo, www.svgrepo.com, Generator: SVG Repo Mixer Tools -->
<svg fill="#000000" height="800px" width="800px" version="1.2" baseProfile="tiny" id="Layer_1" xmlns="http://www.w3.org/2000/svg" xmlns:xlink="http://www.w3.org/1999/xlink"
	  viewBox="0 0 256 256" xml:space="preserve">
<path d="M245.6,71.6l-24.3-16.2L246,0.2l-35,45.2l1.8-16l-69.2,71.5l-1.6,1.7h-25.9H81.4H40.5H27.4c-14.2,0-25.6,11.5-25.6,25.6
	v42.5H20v-42l9.4-14.5v50.5l-9.5,14.9v64.3c0,6.3,5.3,11.5,11.6,11.5c6.4,0,11.5-5.2,11.5-11.5v-55.7l11.3-17.9v19.1l25.5,60
	c3.2,5.5,10.2,7.5,15.8,4.3c5.5-3.1,7.5-10.1,4.3-15.7l-21.8-52l10.4-17.7h58.2V244c0,6.3,5.2,11.5,11.5,11.5
	c6.4,0,11.6-5.2,11.6-11.5v-74l40.1-81.3l18.4,3.5c0,0.1,0,0.1-0.1,0.2l6.4,1.2c0,0,0-0.1,0-0.1l2.8,0.5c4.9,0.9,10-1.3,12.6-5.9
	C253.4,82.3,251.3,74.9,245.6,71.6z M210.3,65.9c-2,0-3.6-1.6-3.6-3.6c0-2,1.6-3.6,3.6-3.6c2,0,3.6,1.6,3.6,3.6
	C213.9,64.3,212.3,65.9,210.3,65.9z"/>
</svg>