<?xml version="1.0" encoding="utf-8"?>
<!-- Uploaded to: SVG Repo, www.svgrepo.com, Generator: SVG Repo Mixer Tools -->
<svg fill="#000000" height="800px" width="800px" version="1.1" id="Layer_1" xmlns="http://www.w3.org/2000/svg" xmlns:xlink="http://www.w3.org/1999/xlink" 
	 viewBox="0 0 256 256" xml:space="preserve">
<g>
	<path d="M132.1,14.7c-63,0-114.2,51.2-114.2,114.2c0,29.8,11.4,56.9,30.2,77.2c-1.9,3.8-3,8-3,12.5c0,15.2,12.4,27.6,27.6,27.6
		c8.4,0,16-3.8,21.1-9.8c12,4.3,24.9,6.6,38.4,6.6c63,0,114.2-51.2,114.2-114.2C246.3,65.9,195.1,14.7,132.1,14.7z M132.1,232.9
		c-11.6,0-22.8-1.9-33.3-5.5c0.9-2.8,1.5-5.7,1.5-8.8c0-15.2-12.4-27.6-27.6-27.6c-7,0-13.4,2.6-18.3,6.9
		c-16.3-18.4-26.3-42.6-26.3-69c0-57.4,46.7-104,104-104s104,46.7,104,104S189.5,232.9,132.1,232.9z"/>
	<path d="M132.1,72.6c-19.7,0-37.1,10.4-46.9,25.9c3.1,2.2,5.1,5.7,5.1,9.8c0,6.6-5.4,12-12,12c-0.4,0-0.7,0-1.1-0.1
		c-0.4,2.6-0.6,5.2-0.6,7.8c0,30.6,24.9,55.4,55.4,55.4c30.6,0,55.4-24.9,55.4-55.4C187.6,97.4,162.7,72.6,132.1,72.6z M132.1,151.5
		c-13,0-23.5-10.5-23.5-23.5c0-13,10.5-23.5,23.5-23.5c13,0,23.5,10.5,23.5,23.5C155.6,141,145.1,151.5,132.1,151.5z"/>
	<path d="M132.1,49.2c-43.5,0-78.8,35.4-78.8,78.8s35.4,78.8,78.8,78.8s78.8-35.4,78.8-78.8S175.6,49.2,132.1,49.2z M132.1,188.8
		c-33.5,0-60.8-27.3-60.8-60.8c0-3.2,0.3-6.4,0.8-9.5c-3.4-2.1-5.7-5.9-5.7-10.2c0-6.6,5.4-12,12-12c0.6,0,1.2,0.1,1.8,0.2
		c10.7-17.5,30-29.3,52-29.3c33.5,0,60.8,27.3,60.8,60.8C193,161.5,165.7,188.8,132.1,188.8z"/>
</g>
</svg>