<?xml version="1.0" encoding="UTF-8"?>
<!DOCTYPE svg  PUBLIC '-//W3C//DTD SVG 1.1//EN'  'http://www.w3.org/Graphics/SVG/1.1/DTD/svg11.dtd'>
<svg enable-background="new 0 0 648 504" version="1.1" viewBox="0 0 648 504" xml:space="preserve" xmlns="http://www.w3.org/2000/svg">
<path d="m358.32 107.3c7.332-4.369 15.187-6.687 23.741-5.917 11.58 1.042 22.361 4.847 31.715 11.629 14.501 10.512 25.274 24.402 33.654 40.145 0.957 1.803 1.513 4.318 1.104 6.256-1.152 5.336-2.757 10.59-4.479 15.777-1.427 4.232-2.526 4.388-6.905 4.073-10.462-0.757-20.937-1.365-31.412-1.622-3.068-0.075-6.189 1.154-9.252 1.914-1.861 0.465-2.403 1.731-2.301 3.72 0.474 9.711 0.95 19.433 1.098 29.157 0.109 7.496-2.715 14.355-5.695 21.065-0.604 1.372-2.103 2.458-3.401 3.381-2.185 1.562-4.533 2.892-7.167 4.535 1.323 1.399 2.511 2.268 3.189 3.448 2.287 3.938 4.591 7.876 6.422 12.011 0.477 1.059-0.74 2.856-1.166 4.317-0.973-0.876-2.133-1.629-2.88-2.654-2.565-3.531-4.711-4.543-8.16-3.626 0.407 3.599 0.945 6.925 1.06 10.265 0.027 0.883-1.087 2.133-1.982 2.573-0.47 0.238-1.9-0.74-2.41-1.507-2.695-4.087-5.504-7.923-10.746-8.976-0.632-0.121-1.331-0.862-1.643-1.493-1.073-2.199-2.524-2.016-4.29-0.978-1.419 0.828-2.879 1.595-4.332 2.35-6.021 3.089-11.826 6.775-18.139 9.063-6.002 2.186-12.533 2.932-18.833 4.256-1.859 0.394-3.224 0.679-2.884 3.279 0.448 3.462 0.224 6.993 0.393 10.495 0.666 13.809-5.615 23.883-16.734 31.391-1.907 1.291-3.899 2.458-5.689 3.911-0.726 0.577-1.629 1.921-1.404 2.579 0.974 3.035 2.328 5.961 3.557 8.948 7.447-3.87 19.719-5.952 23.789 7.42-4.89-2.738-7.14-4.738-12.741 0.525-1.535 1.442 9.031 6.667 6.927 6.693-2.328 0.027-14.949-0.021-17.275-5e-3 -2.793 0.02-5.582-0.011-8.358-0.188-1.604-0.115-3.765-1.338-4.542-2.695-4.976-8.751-9.728-17.616-14.321-26.578-1.382-2.669-0.963-5.458 2.186-6.938 3.455-1.602 4.776-4.447 5.445-8.011 1.086-5.702-0.299-10.794-2.94-15.777-5.394-10.21-12.8-18.818-21.371-26.395-3.059-2.716-6.503-5.362-10.234-6.89-8.394-3.441-16.999-6.429-25.665-9.125-17.565-5.443-33.838-13.727-49.961-22.375-8.085-4.348-15.998-9.036-23.938-13.663-0.825-0.489-1.296-1.592-1.924-2.41 0.927-0.652 1.779-1.542 2.804-1.884 1.097-0.366 2.383-0.353 3.567-0.278 13.418 0.815 26.825 2.054 40.257 2.417 15.937 0.434 31.9 0.274 47.851 0.034 4.528-0.068 9.269-0.695 13.529-2.183 8.975-3.133 17.789-6.768 26.493-10.624 9.555-4.236 19.063-8.231 29.864-7.393 11.974 0.93 23.978 1.694 35.952 2.665 5.159 0.423 7.278-1.745 6.083-6.884-0.665-2.875-1.67-5.668-2.519-8.5-3.36-11.211-6.674-22.437-10.108-33.627-1.14-3.717-0.204-6.887 1.982-9.861l25.139-21.235zm44.086 20.821c-0.075-5.712-4.935-10.889-10.243-10.906-4.943-0.013-9.823 4.997-9.816 10.075 0.027 5.926 4.818 11.178 10.257 11.225 5.139 0.047 9.877-4.976 9.802-10.394z" clip-rule="evenodd" fill-rule="evenodd" stroke="#000" stroke-miterlimit="10"/>
</svg>
