<?xml version="1.0" encoding="utf-8"?>

<!DOCTYPE svg PUBLIC "-//W3C//DTD SVG 1.1//EN" "http://www.w3.org/Graphics/SVG/1.1/DTD/svg11.dtd">
<svg version="1.1" id="Layer_1" xmlns="http://www.w3.org/2000/svg" xmlns:xlink="http://www.w3.org/1999/xlink" x="0px" y="0px"
	 viewBox="0 0 1265.839 1837.659" enable-background="new 0 0 1265.839 1837.659" xml:space="preserve">
<g>
	<path d="M1067.039,1145.898c-0.157,0.917-0.252,1.851-0.33,2.775c-0.438,5.213-1.768,9.616,3.222,11.971
		c4.208,1.985,7.799,1.694,11.238,5.508c5.42,6.012,6.45,15.206,6.738,22.945c0.191,5.131,1.179,10.161,0.605,15.409
		c-0.807,7.387-0.72,14.883-2.542,22.147c-1.615,6.44-2.35,12.898-1.202,19.493c0.193,1.11,0.331,2.231,0.488,3.347
		c1.187,8.429-0.843,12.63-7.997,16.948c-6.389,3.855-12.616,4.865-19.115,0.674c-7.264-4.685-13.323-2.822-20.773-6.275
		c2.006,0.93-19.528,30.531-21.702,32.952c-4.013,4.469-8.963,8.196-11.993,13.286c-3.467,5.825-5.029,12.927-6.25,19.513
		c-0.18,0.971-0.108,2.013-0.422,2.929c-1.585,4.623-4.846,10.726-11.146,6.56c-1.562-1.033-2.803-2.699-4.638-3.069
		c-0.933-0.188-1.907-0.006-2.846-0.162c-7.604-1.258-3.792-21.741-2.819-26.346c1.653-7.825,3.433-16.118,1.524-24.429
		c-1.366-5.949-7.943-8.694-10.799-13.973c-4.245-7.848-7.319-16.485-9.445-25.133c-0.74-3.01-1.489-6.278-3.856-8.279
		c-6.138-5.191-14.81,5.758-17.805,9.77c-2.383,3.192-5.104,3.096-8.375,4.444c-3.916,1.614-7.144,4.155-10.665,6.773
		c-8.229,6.118-16.458,12.235-24.687,18.353c-6.98,5.189-13.62,9.638-18.386,17.073c-4.667,7.28-7.772,15.574-13.698,22.014
		c-5.46,5.933-12.699,9.635-19.225,14.206c-6.977,4.887-10.511,11.333-16.375,17.072c-3.366,3.295-5.447,7.885-8.205,11.823
		c-3.364,4.803-7.264,9.292-10.108,14.378c-2.161,3.865-4.103,8.106-4.341,12.758c-1.026,20.067,3.749,40.636,14.936,57.464
		c6.014,9.047,13.725,14.676,21.526,21.861c7.343,6.763,4.746,19.782,2.076,28.766c-3.857,12.976-11.285,23.759-21.949,32.491
		c-2.932,2.401-6.246,3.411-8.911,5.3c-3.449,2.444-7.055,4.723-10.456,7.235c-4.259,3.147-9.424,4.487-13.544,7.96
		c-2.082,1.755-4.595,3.581-6.555,5.327c-19.03,16.957-38.68,31.929-55.727,51.141c-10.461,11.789-20.263,24.143-29.784,36.699
		c-8.512,11.225-19.09,20.881-18.925,35.439c0.052,4.587-1.512,6.676-5.833,7.707c-3,0.716-5.235,4.204-4.548,8.292
		c0.986,5.861-1.991,9.609-5.938,13.08c-18.079,15.899-46.151,11.988-68.186,16.254c-4.417,0.855-8.901,0.7-12.67-1.982
		c-5.247-3.734-5.217-9.564-4.131-14.9c0.859-4.219,1.379-8.518,2.52-12.726c3.283-12.107,5.797-24.477,10.807-36.002
		c2.477-5.698,4.912-11.558,8.959-16.565c2.095-2.592,4.498-4.892,7.304-5.996c3.507-1.381,5.383-5.231,9.388-5.544
		c0.646-0.051,0.75-0.733,0.844-1.316c1.138-6.988,9.213-14.639,12.812-20.776c5.468-9.323,12.933-18.002,19.945-26.187
		c16.878-19.703,37.136-35.235,56.094-52.628c5.164-4.737,7.772-11.065,12.958-15.436c5.877-4.954,9.031-7.63,11.375-15.322
		c3.159-10.368-0.208-21.649-5.063-30.92c-2.054-3.922-4.957-10.075-8.579-12.786c-8.268-6.191-18.706-6.418-27.957-2.433
		c-7.521,3.24-14.662,8.012-22.821,8.711c-7.827,0.67-15.41-2.522-22.616-5.649c-39.186-16.872-76.747-35.137-119.686-40.068
		c-6.862-0.788-14.985,1.409-22.035,1.331c-7.798-0.087-15.589-0.76-23.287-2.01c-14.656-2.378-28.358-8.993-43.142-10.16
		c-4.141-0.327-8.729,0.133-12.765,3.219c-7.508,5.741-15.435,11.279-25.497,11.295c-20.751,0.032-38.044-15.817-49.39-31.725
		c-9.864-13.83-27.929-41.092-4.084-49.948c8.978-3.334,18.393-4.907,27.707-6.626c6.817-1.258,13.73-2.207,20.575-3.432
		c13.486-2.414,25.728,0.252,36.797,8.434c12.938,9.563,36.698,0.162,51.188,0.103c11.963-0.049,23.935,1.526,35.474,4.688
		c11.92,3.266,22.685,8.897,34.921,11.121c4.605,0.837,8.326,4.035,11.081,7.02c2.448,2.652,4.517,2.114,6.818,2.055
		c5.336-0.138,10.53,0.31,15.825,1.172c7.343,1.195,14.638,2.775,22.242,2.63c7.954-0.151,15.968,0.482,23.761,2.611
		c3.456,0.944,6.982,1.459,10.589,0.467c5.126-1.409,6.263-4.474,4.13-9.642c-5.03-12.182-12.826-20.571-20.606-30.973
		c-7.778-10.399-14.709-21.431-20.722-32.941c-10.82-20.713-17.644-43.964-25.363-66.258c-7.968-23.016-20.495-44.519-25.256-68.552
		c-1.526-7.704-2.263-15.558-1.994-23.412c0.251-7.319,2.627-14.671,1.796-21.99c-0.608-5.357-1.03-10.819-2.014-16.173
		c-1.006-5.47-0.601-6.878-4.956-11.877c-11.32-12.993-27.688-21.848-41.283-32.309c-14.242-10.958-28.074-22.464-41.25-34.688
		c-26.77-24.838-50.734-52.739-69.912-83.872c-14.312-2.789-26.085-4.41-39.46-11.098c-12.77-6.385-24.659-14.366-36.306-22.583
		c-16.248-11.462-32.085-23.641-49.493-33.339c-13.488-7.514-27.331-12.72-39.298-22.912c-2.204-1.877-4.4-3.882-7.106-4.911
		c-11.96-4.547-16.505,3.06-15.225,14.345c2.933,25.871,14.275,56.064,27.603,78.363c5.772,9.664,12.97,18.389,18.765,28.095
		c5.233,8.765,6.657,17.325,1.78,26.434c-1.469,2.743,0.263,3.363,1.985,3.765c7.451,1.738,14.402,4.903,21.435,7.715
		c6.498,2.597,11.885,7.377,13.045,14.554c2.496,15.45,4.311,31.121-0.144,46.487c-2.709,9.345-5.158,18.695-7.08,28.229
		c-1.177,5.839-4.527,10.92-7.335,16.135c-1.8,3.343-4.661,5.043-8.482,5.516c-6.546,0.81-13.363,1.304-19.259-1.357
		c-6.274-2.832-12.555-6.627-16.39-12.704c-1.218-1.93-3.115-2.186-4.266-3.691c-6.421-8.401-13.732-16.165-17.223-26.542
		c-2.127-6.32-3.649-12.873-5.879-19.021c-1.614-4.451-3.823-10.266-9.737-12.156c-4.252-1.36-5.705-5.878-8.926-8.748
		c-3.567-3.178-7.989-5.25-11.527-8.485c-2.324-2.125-4.216-4.676-5.983-7.282c-1.851-2.73-3.583-5.542-5.188-8.424
		c-6.996-12.559-6.813-26.027-11.361-39.356c-2.412-7.069-4.508-14.256-7.204-21.213c-1.19-3.07-3.182-6.04-5.513-8.345
		c-0.841-0.832-3.686,0.564-5.729,0.418c-6.832-0.487-12.996,2.585-19.469,3.715c-4.229,0.738-8.137,2.668-12.446,2.829
		c-6.311,0.236-8.449-1.466-10.853-7.225c-2.83-6.781-3.626-17.64-3.937-24.938c-0.429-10.077,1.366-20.118,2.919-30.032
		c1.93-12.323,3.492-25.294,0.044-37.5c-3.736-13.225-1.541-25.265,0.576-38.763c1.175-7.492,4.433-14.14,7.658-20.842
		c2.625-5.454,4.953-11.067,7.864-16.363c22.767-41.422,32.056-88.894,46.405-133.439c7.768-24.115,20.513-44.628,47.48-49.427
		c7.245-1.29,12.617-3.548,19.687-1.185c7.434,2.485,15.041,6.393,21.469,10.855c4.886,3.391,9.244,7.474,13.786,11.315
		c21.952,18.565,47.74,28.843,71.917,43.571c7.003,4.266,14.962,3.169,22.559,4.107c4.049,0.5,13.322-4.54,16.843-6.649
		c6.287-3.767,11.118-9.564,16.809-14.104c11.806-9.417,26.9-13.59,39.84-21.376c27.304-16.429,41.877-46.651,58.134-72.652
		c4.919-7.867,9.34-16.125,14.693-23.6c3.669-5.123,5.61-10.977,9.214-15.956c3.666-5.064,7.838-9.655,12.36-14.018
		c4.55-4.39,8.138-9.658,11.463-15.109c2.992-4.904,6.594-9.435,9.909-14.144c2.931-4.164,5.294-8.908,8.887-12.384
		c4.882-4.723,6.595-12.083,9.985-17.919c2.405-4.14,4.522-8.873,3.614-13.576c-1.564-8.088-7.657-12.115-14.631-13.202
		c-9.034-1.408-17.606-7.061-26.529-10.153c-12.874-4.461-26.371-7.124-39.976-7.868c-6.47-0.354-13.432-0.696-19.859,0.309
		c-5.932,0.928-11.15,4.383-17.091,5.066c-3.554,0.409-6.967,1.479-10.435,2.062c-9.271,1.559-18.723,4.019-28.197,3.335
		c-10.703-0.773-19.009-6.544-27.725-12.234c-0.232-0.151-0.498-0.356-0.592-0.597c-3.426-8.789-10.503-15.525-13.734-24.419
		c-2.132-5.87-0.718-11.738,0.318-17.512c3.791-21.13,12.285-40.31,24.379-57.988c7.646-11.174,23.444-14.3,35.929-16.002
		c6.502-0.886,13.393-0.445,19.807-1.605c9.317-1.685,18.559-5.904,27.721-8.44c11.854-3.282,20.31-11.78,29.697-18.889
		c3.387-2.565,6.258-5.622,9.117-8.709c1.372-1.482,1.575-2.561-0.329-4.274c-3.474-3.125-7.811-4.785-11.402-7.777
		c-7.966-6.639-8.301-14.705-0.547-21.585c3.402-3.018,6.377-6.576,9.229-10.142c5.792-7.242,10.489-15.298,20.414-18.393
		c2.866-0.894,6.526-2.196,9.174-5.148c3.014-3.36,7.921-3.521,12.309-2.853c5.93,0.903,9.627-1.917,9.611-7.997
		c-0.019-7.28,2.499-13.235,8.558-17.56c3.011-2.149,7.655-0.939,9.823,2.493c2.634,4.17,5.756,8.01,9.6,11.112
		c4.837,3.903,13.617,1.609,16.205-4.042c3.521-7.688,10.377-11.501,18.071-10.103c2.28,0.414,3.744,1.312,4.318,3.89
		c0.787,3.535,3.777,6.01,5.622,9.002c4.376,7.098,7.439,14.674,10.739,22.292c3.257,7.518,8.134,14.141,12.702,21.034
		c1.249,1.885,3.168,4.032,5.327,3.359c2.901-0.904,2.163-5.205,3.367-7.995c1.563-3.623,6.369-4.296,10.309-4.086
		c6.649,0.353,13.241,1.716,19.493,4.003c4.809,1.759,9.549,5.704,14.581,6.463c9.015,1.359,17.177,9.843,25.318,13.77
		c9.79,4.723,20.653,7.236,31.527,7.2c12.163-0.04,24.165-3.165,36.327-3.115c9.324,0.038,19.998,2.345,26.951,9.002
		c7.962,7.624,0.107,18.489-10.158,17.574c-2.965-0.264-5.491,2.183-8.62,1.557c-6.476-1.295-12.634,0.311-18.74,2.256
		c-0.394,0.126-0.834,0.163-1.25,0.154c-5.358-0.106-9.31,5.498-7.642,10.691c0.697,2.17,2.671,2.283,4.242,2.943
		c5.528,2.321,11.74,3,16.553,7.08c0.746,0.633,1.601,1.118,2.102,1.988c6.401,11.11,15.976,18.691,27.019,24.802
		c5.297,2.931,11.604,11.568,18.213,9.79c1.582-0.426,3.024-1.442,4.662-1.475c2.085-0.043,3.826,1.494,5.334,2.935
		c8.035,7.678,15.976,15.498,24.054,23.157c1.21,1.147,2.462,2.358,3,3.936c1.281,3.758-2.115,7.626-5.823,9.056
		c-3.882,1.497-10.612,1.686-13.589,4.789c-5.523,5.758,6.734,5.645,8.014,10.714c3.504,0.256,6.781,2.572,8.192,5.79
		c1.992,4.545,0.1,10.711-4.743,12.507c-7.557,2.803-15.515,4.487-23.207,1.574c-3.67-1.39-6.904-2.37-10.722-1.73
		c-3.038,0.509-5.229,2.903-8.289,3.415c-1.244,0.208-1.106,1.6-0.3,2.373c1.94,1.862,2.99,4.389,5.907,5.58
		c3.967,1.619,6.36,5.589,10.265,7.846c4.082,2.36,8.455,3.153,12.641,4.711c2.263,0.843,4.442,1.81,6.384,3.071
		c2.964,1.924,1.826,6.692-2.34,8.71c-2.125,1.029-3.482,2.401-4.923,4.13c-6.432,7.714-22.081,10.105-31.161,13.433
		c-4.369,1.601-9.754,2.35-14.689,1.485c-1.793-0.314-11.858-5.475-12.511-1.962c-0.584,3.146,4.112,3.394,5.965,3.857
		c1.093,0.173,1.811,0.593,2.548,1.19c17.643,14.273,27.699,32.175,41.5,49.772c3.712,0.94,5.855,5.289,5.189,9.06
		c-0.666,3.771-3.543,6.846-6.867,8.746s-7.102,2.817-10.8,3.813c-2.754,0.742-6.175,2.653-5.417,5.403
		c0.226,0.819,0.812,1.483,1.394,2.103c6.902,7.356,17.393,9.951,24.342,17.2c4.224,4.407,6.031,7.652,2.686,12.34
		c-3.155,4.422-10.512,9.826-15.538,11.795c-5.176,2.029-9.832,5.369-15.692,5.586c-4.179,0.16,2.55,11.892,3.244,13.171
		c2.767,5.104,11.684,21.151,12.754,20.672c1.395,5.524-1.494,11.062-6.065,14.133c-4.557,3.062-10.234,3.899-15.717,4.184
		c-1.83,0.095-3.714,0.148-5.397,0.874c-1.683,0.725-3.143,2.311-3.113,4.143c0.034,2.115,1.902,3.679,3.604,4.936
		c6.327,5.272,18.34,15.969,19.53,16.989c5.519,4.732-8.39,15.563-11.99,17.076c-0.143,0.06,0.077,0.918,0.082,1.404
		c0.035,3.895-1.547,6.809-4.647,9.318c-5.588,4.522-10.452,10.006-17.257,12.85c-2.279,0.952-4.59,2.325-7.285,1.067
		c-0.892-0.416-2.122-0.545-2.744,0.329c-0.785,1.102,0.071,2.514,0.746,3.059c4.776,3.859,6.78,10.139,11.954,13.588
		c4.542,3.027,4.721,8.01,5.737,12.594c0.281,1.265-0.2,2.833-1.359,3.377c-4.588,2.152-7.134,6.503-10.794,9.638
		c-4.289,3.674-9.28,4.505-14.641,3.657c-7.075-1.119-4.187,4.334-6.478,7.445c-3.627,4.927-8.169,8.631-14.086,10.585
		c2.386-0.788,1.296,11.249,1.489,11.62c1.852,3.561,3.605,0.897,5.979,3.858c1.493,1.862,2.937,3.775,4.247,5.769
		c4.906,7.467,4.574,7.151-2.535,12.263c-11.054,7.948-22.331,6.144-34.227,2.687c-6.824-1.983-14.487-5.063-21.623-5.368
		c-6.199-0.265-21.221,0.207-23.946,7.105c-1.478,3.742-0.617,7.969,0.506,11.832c5.404,18.596,18.121,33.447,24.33,51.42
		c3.254,9.418,10.104,16.274,16.087,23.8c18.867,23.73,46.374,42.273,71.914,58.354c12.344,7.772,25.056,14.94,37.899,21.849
		c11.777,6.336,22.859,11.685,33.317,20.188c9.961,8.1,19.02,17.302,27.001,27.357c11.569,14.575,20.882,30.953,27.395,48.389
		c3.129,8.377,5.261,17.047,8.072,25.501c3.085,9.277,7.949,17.972,9.667,27.681c0.395,2.235,1.186,4.196,2.84,5.587
		c6.515,5.479,7.751,10.556,17.4,7.628c25.678-7.793,51.079-23.183,68.389-43.443c7.268-8.506,13.626-17.786,18.968-27.615
		c10.858-19.982,17.524-42.278,19.028-64.988c-1.103-10.076-0.721-21.586-2.937-31.177c-6.399-27.692-17.498-53.887-21.924-82.24
		c-2.593-16.613-10.052-31.302-11.15-48.566c-0.979-15.409,0.291-30.785,1.813-46.112c2.297-23.128,5.307-43.777,14.77-65.272
		c7.449-16.919,17.273-32.794,29.13-46.979c11.829-14.15,24.768-29.364,38.734-41.416c2.412-2.081,4.99-4.066,7.765-5.601
		c2.693-1.49,5.554-1.229,5.974,2.531c0.268,2.399,2.853,2.081,3.46,4.287c1.313,4.774,0.628,9.196-0.761,13.678
		c-1.638,5.286-4.226,10.193-6.351,15.225c-2.754,6.52-4.95,13.413-7.683,20.019c-2.601,6.286-5.604,12.391-8.445,18.57
		c-2.987,6.498-1.928,8.966,6.106,9.728c4.357,0.413,8.83-0.494,12.681-2.573c4.222-2.279,7.578-5.839,11.297-8.87
		c3.718-3.03,8.177-5.652,12.97-5.451c11.456,0.479,10.118,15.27,7.749,22.907c-4.033,13.005-8.122,25.995-12.284,38.96
		c-3.502,10.908-8.471,19.777-6.313,31.868c0.256,1.433,0.812,3.108,2.222,3.47c1.706,0.438,3.06-1.345,4.135-2.74
		c2.84-3.682,7.368-6.072,12.017-6.089c4.649-0.018,9.291,2.433,11.696,6.412c2.459,4.069,2.463,9.118,2.223,13.866
		c-0.343,6.776-1.129,13.76-3.598,20.131c-1.352,3.488-4.291,6.068-5.727,9.377c-1.868,4.304-2.069,10.21-2.905,14.825
		c-1.781,9.837-3.356,19.711-4.725,29.614c-2.972,21.501-5.88,43.845-5.88,65.442c-2.875,12.328,3.078,27.328,5.902,39.072
		c5.621,23.375,8.315,43.581,4.136,67.277c-0.465,2.635-0.929,5.271-1.465,7.893c-3.269,16.005-9.266,31.546-17.208,45.813
		c-11.583,20.808-28.525,40.139-47.529,54.53c-9.349,7.079-19.211,13.433-28.953,19.952c-2.735,1.83-5.979,2.046-7.67,5.223
		C1067.629,1143.261,1067.267,1144.563,1067.039,1145.898z M261.664,727.959c-0.353-0.506-0.665-0.968-0.908-1.37
		c-4.093-6.776-8.448-13.394-13.05-19.836c-6.001-8.398-12.423-16.495-19.235-24.249c-7.687-8.75-15.991-12.597-25.502-18.296
		c-2.148-1.287-5.18-1.703-6.982,0.036c-1.283,1.238-1.553,3.157-1.855,4.915c-1.38,8.045-6.266,13.365-8.86,20.614
		c-2.446,6.836-3.144,15.871-4.916,23.11c-3.63,14.825,12.907,19.521,24.798,21.653c11.757,2.108,23.563,3.944,35.406,5.507
		c5.977,0.788,26.02,7.155,25.948-3.107C266.488,734.437,263.514,730.608,261.664,727.959z"/>
	<path d="M768.464,736.332c-0.017-0.244-0.034-0.487-0.052-0.731c0.031,0.252,0.062,0.505,0.095,0.758
		C768.508,736.361,768.464,736.332,768.464,736.332z"/>
	<path d="M262.822,727.154c0.028,0.104,0.056,0.208,0.084,0.312c-0.048-0.063-0.096-0.125-0.151-0.18
		C262.749,727.293,262.822,727.154,262.822,727.154z"/>
</g>
</svg>
