<?xml version="1.0" encoding="utf-8"?>
<!-- Uploaded to: SVG Repo, www.svgrepo.com, Generator: SVG Repo Mixer Tools -->
<svg fill="#000000" version="1.1" id="Layer_1" xmlns="http://www.w3.org/2000/svg" xmlns:xlink="http://www.w3.org/1999/xlink" 
	 width="800px" height="800px" viewBox="0 0 256 256" enable-background="new 0 0 256 256" xml:space="preserve">
<path d="M244.311,143.467c0,0-173.441,0-174.859,0c-19.77,0-35.7-15.792-35.7-35.562c0-9.787,3.938-18.648,10.299-25.116
	l23.137,23.137c13.4,13.4,35.129,13.4,48.529,0L80.401,70.609c-8.369-8.359-21.424-9.127-30.679-2.353
	c6.774-9.255,6.006-22.31-2.353-30.679L12.052,2.261c-13.4,13.4-13.4,35.129,0,48.529l20.646,20.646
	C13.569,88.302,2,110.218,2,134.192C2,187.073,58.297,230,128.024,230.571c0,0,0,23.167,0,23.167c0,0,11.076,0.246,20.38-7.489
	c7.036-5.85,11.127-14.865,11.127-24.017V193.7c12.721-3.013,33.219-9.816,49.386-26.603h7.827
	c-10.279,13.577-30.837,25.884-51.306,31.191v11.194c29.163-7.246,52.251-22.832,64.607-42.385h6.862
	c-12.829,22.625-38.595,40.633-71.47,48.46v6.675c0,1.516-0.098,3.003-0.276,4.47c43.931-9.698,78.056-36.773,88.414-70.751
	C255.466,149.739,250.799,143.467,244.311,143.467z M178.355,171.114h-4.874c-2.176,0-3.938-1.762-3.938-3.938
	c0-2.176,1.762-3.938,3.938-3.938h4.874c2.176,0,3.938,1.762,3.938,3.938C182.293,169.351,180.531,171.114,178.355,171.114z"/>
</svg>